<?xml version="1.0" encoding="UTF-8"?>
<svg version="1.1" xmlns="http://www.w3.org/2000/svg" width="1024" height="1024">
<path d="M0 0 C50.69670495 -1.13500086 96.53778062 24.8371546 132.859375 58.26953125 C135.01645763 60.25664089 135.01645763 60.25664089 137.953125 62.1171875 C137.953125 62.7771875 137.953125 63.4371875 137.953125 64.1171875 C138.571875 64.4265625 139.190625 64.7359375 139.828125 65.0546875 C141.203125 65.7421875 142.578125 66.4296875 143.953125 67.1171875 C143.953125 67.7771875 143.953125 68.4371875 143.953125 69.1171875 C144.53449219 69.38273437 145.11585938 69.64828125 145.71484375 69.921875 C152.47305954 73.53097453 158.4482424 79.99336271 162.953125 86.1171875 C162.953125 86.7771875 162.953125 87.4371875 162.953125 88.1171875 C163.695625 88.3440625 164.438125 88.5709375 165.203125 88.8046875 C167.953125 90.1171875 167.953125 90.1171875 170.015625 92.7421875 C170.655 93.5259375 171.294375 94.3096875 171.953125 95.1171875 C173.273125 95.1171875 174.593125 95.1171875 175.953125 95.1171875 C176.283125 94.1271875 176.613125 93.1371875 176.953125 92.1171875 C178.890625 89.9296875 178.890625 89.9296875 180.953125 88.1171875 C181.613125 88.1171875 182.273125 88.1171875 182.953125 88.1171875 C182.953125 87.4571875 182.953125 86.7971875 182.953125 86.1171875 C184.59663957 84.75541828 186.26835156 83.42756684 187.953125 82.1171875 C190.1890799 79.93856477 192.375142 77.72235287 194.53125 75.46484375 C195.97001565 73.98068016 197.45865092 72.54524051 198.953125 71.1171875 C199.613125 71.1171875 200.273125 71.1171875 200.953125 71.1171875 C201.283125 70.1271875 201.613125 69.1371875 201.953125 68.1171875 C203.60869529 66.63920433 205.32759086 65.23136397 207.078125 63.8671875 C210.44525629 61.18651653 213.65979071 58.53501139 216.640625 55.4296875 C220.10815985 51.85583673 223.92922132 49.03246466 227.953125 46.1171875 C229.93330558 44.61852624 231.91240007 43.11842926 233.890625 41.6171875 C238.80636365 37.93346355 243.79288057 34.44666695 248.953125 31.1171875 C249.74589844 30.58738281 250.53867187 30.05757812 251.35546875 29.51171875 C285.05100522 7.36893764 325.70263179 -4.90581456 366.12011719 2.19433594 C375.8589181 4.27613553 384.93073225 7.97095858 393.953125 12.1171875 C394.87351562 12.51679688 395.79390625 12.91640625 396.7421875 13.328125 C408.61626051 18.78168948 422.51454897 28.26926412 429.953125 39.1171875 C429.953125 39.7771875 429.953125 40.4371875 429.953125 41.1171875 C430.613125 41.1171875 431.273125 41.1171875 431.953125 41.1171875 C432.283125 42.4371875 432.613125 43.7571875 432.953125 45.1171875 C433.613125 45.1171875 434.273125 45.1171875 434.953125 45.1171875 C435.283125 46.4371875 435.613125 47.7571875 435.953125 49.1171875 C436.613125 49.1171875 437.273125 49.1171875 437.953125 49.1171875 C441.953125 55.7421875 441.953125 55.7421875 441.953125 59.1171875 C442.613125 59.1171875 443.273125 59.1171875 443.953125 59.1171875 C448.14040457 67.64528021 451.45074301 75.94632019 453.953125 85.1171875 C454.22519775 86.07536377 454.49727051 87.03354004 454.77758789 88.02075195 C457.35374311 98.29852941 457.34437108 108.30937999 457.234375 118.85009766 C457.20303941 121.87545121 457.19337001 124.90028081 457.1875 127.92578125 C457.17833328 129.8802146 457.16795856 131.83464273 457.15625 133.7890625 C457.15200012 134.67785095 457.14775024 135.5666394 457.14337158 136.48236084 C457.04884155 144.89474106 456.39455995 153.05219249 454.390625 161.2421875 C453.98650391 162.91667969 453.98650391 162.91667969 453.57421875 164.625 C453.26677734 165.85863281 453.26677734 165.85863281 452.953125 167.1171875 C452.293125 167.1171875 451.633125 167.1171875 450.953125 167.1171875 C451.0459375 168.5403125 451.0459375 168.5403125 451.140625 169.9921875 C451.15756998 174.16065153 450.00691152 177.7564611 448.70703125 181.6875 C447.94363526 184.147771 447.41719965 186.58505205 446.953125 189.1171875 C446.293125 189.1171875 445.633125 189.1171875 444.953125 189.1171875 C444.85 190.2928125 444.746875 191.4684375 444.640625 192.6796875 C444.12397542 196.94204653 442.8022889 200.25806284 440.953125 204.1171875 C440.293125 204.1171875 439.633125 204.1171875 438.953125 204.1171875 C438.623125 206.4271875 438.293125 208.7371875 437.953125 211.1171875 C437.293125 211.1171875 436.633125 211.1171875 435.953125 211.1171875 C435.83904297 212.58285156 435.83904297 212.58285156 435.72265625 214.078125 C435.03441151 218.82095148 432.93098406 222.58494495 430.640625 226.7421875 C430.20637207 227.54889893 429.77211914 228.35561035 429.32470703 229.18676758 C424.04357908 238.92786681 418.51063659 248.53184708 412.953125 258.1171875 C412.293125 258.1171875 411.633125 258.1171875 410.953125 258.1171875 C410.85 258.6740625 410.746875 259.2309375 410.640625 259.8046875 C409.81134092 262.5940976 408.61013444 264.7310939 406.953125 267.1171875 C406.293125 267.1171875 405.633125 267.1171875 404.953125 267.1171875 C404.85 267.6740625 404.746875 268.2309375 404.640625 268.8046875 C403.81134092 271.5940976 402.61013444 273.7310939 400.953125 276.1171875 C400.293125 276.1171875 399.633125 276.1171875 398.953125 276.1171875 C398.623125 277.4371875 398.293125 278.7571875 397.953125 280.1171875 C397.293125 280.1171875 396.633125 280.1171875 395.953125 280.1171875 C395.623125 281.4371875 395.293125 282.7571875 394.953125 284.1171875 C394.293125 284.1171875 393.633125 284.1171875 392.953125 284.1171875 C392.623125 285.4371875 392.293125 286.7571875 391.953125 288.1171875 C391.293125 288.1171875 390.633125 288.1171875 389.953125 288.1171875 C389.72625 288.7978125 389.499375 289.4784375 389.265625 290.1796875 C387.64086354 293.8160584 385.62509243 297.14548013 382.953125 300.1171875 C382.293125 300.1171875 381.633125 300.1171875 380.953125 300.1171875 C380.623125 301.4371875 380.293125 302.7571875 379.953125 304.1171875 C379.293125 304.1171875 378.633125 304.1171875 377.953125 304.1171875 C377.293125 305.7671875 376.633125 307.4171875 375.953125 309.1171875 C375.293125 309.1171875 374.633125 309.1171875 373.953125 309.1171875 C373.664375 309.7153125 373.375625 310.3134375 373.078125 310.9296875 C371.953125 313.1171875 371.953125 313.1171875 369.953125 316.1171875 C369.293125 316.1171875 368.633125 316.1171875 367.953125 316.1171875 C367.953125 317.1071875 367.953125 318.0971875 367.953125 319.1171875 C366.33337941 320.82948998 364.6572304 322.48882012 362.953125 324.1171875 C362.04490079 325.21118484 361.14871953 326.31530631 360.265625 327.4296875 C359.5025 328.3165625 358.739375 329.2034375 357.953125 330.1171875 C357.293125 330.1171875 356.633125 330.1171875 355.953125 330.1171875 C355.623125 331.4371875 355.293125 332.7571875 354.953125 334.1171875 C354.293125 334.1171875 353.633125 334.1171875 352.953125 334.1171875 C352.623125 335.1071875 352.293125 336.0971875 351.953125 337.1171875 C351.293125 337.1171875 350.633125 337.1171875 349.953125 337.1171875 C349.6128125 337.890625 349.6128125 337.890625 349.265625 338.6796875 C346.03349639 344.68221207 342.69920144 349.89894186 335.953125 352.1171875 C330.62115448 353.02731451 326.41429115 352.87252732 321.890625 349.7421875 C318.11057605 346.36427142 318.11057605 346.36427142 317.609375 342.39453125 C317.2596626 334.91942879 317.90094554 330.68768462 322.96484375 325.0859375 C323.62097656 324.43625 324.27710938 323.7865625 324.953125 323.1171875 C325.51644531 322.55 326.07976562 321.9828125 326.66015625 321.3984375 C327.78264344 320.28383664 328.91304845 319.17715941 330.05078125 318.078125 C334.79492767 313.18785498 339.17455541 307.78504189 342.953125 302.1171875 C343.613125 302.1171875 344.273125 302.1171875 344.953125 302.1171875 C345.2934375 301.34375 345.2934375 301.34375 345.640625 300.5546875 C347.43530118 297.22171745 349.45277515 293.97015079 351.953125 291.1171875 C352.613125 291.1171875 353.273125 291.1171875 353.953125 291.1171875 C354.20578125 290.56160156 354.4584375 290.00601562 354.71875 289.43359375 C356.15132564 286.74524769 357.85054097 284.47488656 359.703125 282.0546875 C360.49589844 281.00796875 361.28867187 279.96125 362.10546875 278.8828125 C362.55132324 278.29435547 362.99717773 277.70589844 363.45654297 277.09960938 C366.41325426 273.18305217 369.34198236 269.24596214 372.265625 265.3046875 C372.86407227 264.50474365 373.46251953 263.7047998 374.07910156 262.88061523 C377.37434602 258.43184999 380.31925983 253.98821222 382.953125 249.1171875 C383.613125 249.1171875 384.273125 249.1171875 384.953125 249.1171875 C385.241875 248.3746875 385.530625 247.6321875 385.828125 246.8671875 C386.77615144 244.54978953 387.80158411 242.33801635 388.953125 240.1171875 C389.613125 240.1171875 390.273125 240.1171875 390.953125 240.1171875 C391.283125 238.4671875 391.613125 236.8171875 391.953125 235.1171875 C392.613125 235.1171875 393.273125 235.1171875 393.953125 235.1171875 C394.19417969 234.29605469 394.43523437 233.47492188 394.68359375 232.62890625 C396.18158743 228.48522526 398.1540738 224.7864297 400.265625 220.9296875 C403.3255519 215.24748859 406.24770177 209.56315322 408.83984375 203.6484375 C409.60592947 201.90660049 410.40210273 200.17778794 411.22265625 198.4609375 C414.52257816 191.5221289 416.83241478 184.49396831 418.953125 177.1171875 C419.49213092 175.28307014 420.03355637 173.44966094 420.578125 171.6171875 C420.90683594 170.48796875 420.90683594 170.48796875 421.2421875 169.3359375 C421.953125 167.1171875 421.953125 167.1171875 422.97265625 164.7578125 C424.13264259 161.63370587 424.57139631 158.66717205 425.015625 155.3671875 C425.84936365 149.22094885 425.84936365 149.22094885 426.953125 148.1171875 C427.20020009 145.63118505 427.38239768 143.17262831 427.515625 140.6796875 C427.5573584 139.92123535 427.5990918 139.1627832 427.64208984 138.38134766 C429.39956649 115.2989532 429.39956649 115.2989532 424.953125 93.1171875 C424.87666335 90.7851073 424.86169201 88.44872872 424.953125 86.1171875 C424.293125 86.1171875 423.633125 86.1171875 422.953125 86.1171875 C422.623125 83.8071875 422.293125 81.4971875 421.953125 79.1171875 C421.293125 79.1171875 420.633125 79.1171875 419.953125 79.1171875 C419.69917969 78.51390625 419.44523438 77.910625 419.18359375 77.2890625 C417.42218038 73.19888914 415.75096813 69.61449142 412.953125 66.1171875 C412.953125 65.4571875 412.953125 64.7971875 412.953125 64.1171875 C412.293125 64.1171875 411.633125 64.1171875 410.953125 64.1171875 C410.02691816 62.71072526 409.10323714 61.30254345 408.19140625 59.88671875 C401.20858558 49.90811381 389.59490723 43.54547275 378.953125 38.1171875 C378.26089844 37.75882813 377.56867188 37.40046875 376.85546875 37.03125 C367.20849464 32.37409008 356.58391119 30.60852636 345.953125 30.1171875 C344.97085937 30.06433594 343.98859375 30.01148438 342.9765625 29.95703125 C324.09198047 29.41814119 304.69537625 34.72492267 287.953125 43.1171875 C287.0146875 43.55675781 286.07625 43.99632812 285.109375 44.44921875 C269.9171891 51.69054912 256.45786246 60.84361559 243.64648438 71.69140625 C241.34604013 73.62834316 239.00362556 75.50727738 236.640625 77.3671875 C235.65642578 78.14835937 235.65642578 78.14835937 234.65234375 78.9453125 C232.953125 80.1171875 232.953125 80.1171875 229.953125 81.1171875 C229.953125 81.7771875 229.953125 82.4371875 229.953125 83.1171875 C226.49158654 86.1171875 226.49158654 86.1171875 223.953125 86.1171875 C223.62828125 86.94476563 223.62828125 86.94476563 223.296875 87.7890625 C221.48816866 90.92275139 219.13760826 92.95115256 216.453125 95.3671875 C215.95425781 95.82609375 215.45539063 96.285 214.94140625 96.7578125 C211.21210007 100.1171875 211.21210007 100.1171875 208.953125 100.1171875 C208.953125 100.7771875 208.953125 101.4371875 208.953125 102.1171875 C207.30859375 103.73828125 207.30859375 103.73828125 205.140625 105.5546875 C202.12849235 108.09058082 202.12849235 108.09058082 199.31640625 110.83984375 C197.953125 112.1171875 197.953125 112.1171875 195.953125 112.1171875 C195.623125 113.1071875 195.293125 114.0971875 194.953125 115.1171875 C194.293125 115.1171875 193.633125 115.1171875 192.953125 115.1171875 C192.581875 115.99117187 192.581875 115.99117187 192.203125 116.8828125 C190.76787054 119.44832986 189.17649487 120.95443548 186.953125 122.8671875 C186.251875 123.48078125 185.550625 124.094375 184.828125 124.7265625 C182.953125 126.1171875 182.953125 126.1171875 180.953125 126.1171875 C182.3313195 130.25177101 184.2843092 130.67977757 188.078125 132.7421875 C189.36801552 133.45553605 190.65705151 134.17043156 191.9453125 134.88671875 C192.94449707 135.43900146 192.94449707 135.43900146 193.96386719 136.00244141 C197.0812343 137.74936068 200.14376468 139.58355014 203.203125 141.4296875 C203.81833008 141.80061523 204.43353516 142.17154297 205.06738281 142.55371094 C207.03047532 143.73959956 208.99180073 144.92837711 210.953125 146.1171875 C211.65985352 146.54402832 212.36658203 146.97086914 213.09472656 147.41064453 C222.21048385 152.91917219 231.25188268 158.51310673 240.12060547 164.41357422 C243.97138697 166.94791464 247.85180323 169.11236285 251.99804688 171.12329102 C255.18274344 172.74228449 258.15240563 174.66501743 261.140625 176.6171875 C261.73037109 176.99488281 262.32011719 177.37257813 262.92773438 177.76171875 C265.56686758 179.4702566 268.07939481 181.22070947 270.51171875 183.21484375 C273.16510285 185.28236064 275.78594424 186.62841834 278.828125 188.0546875 C282.97627962 190.06791169 286.64988493 192.15421365 290.2890625 194.96875 C292.21351392 196.29689253 294.19125127 197.17333868 296.328125 198.1171875 C299.82478955 199.76426501 299.82478955 199.76426501 300.953125 202.8671875 C300.953125 203.6096875 300.953125 204.3521875 300.953125 205.1171875 C301.613125 205.1171875 302.273125 205.1171875 302.953125 205.1171875 C303.06992223 223.15411729 303.15809535 241.19094895 303.21218586 259.22817516 C303.23796852 267.6031731 303.27311999 275.97793608 303.33032227 284.3527832 C303.38015563 291.65224515 303.41241557 298.95153693 303.42356747 306.25116426 C303.43008646 310.11642508 303.44540836 313.98119912 303.48177528 317.84630394 C303.51573428 321.48499993 303.52617853 325.12300904 303.51866341 328.76184845 C303.52069309 330.73264326 303.54758896 332.70336339 303.57522583 334.67396545 C303.51894563 344.30690955 303.51894563 344.30690955 300.55044556 347.35552979 C299.69332977 347.93687683 298.83621399 348.51822388 297.953125 349.1171875 C297.25195557 349.61677979 296.55078613 350.11637207 295.82836914 350.63110352 C295.13864014 351.04030029 294.44891113 351.44949707 293.73828125 351.87109375 C292.96935547 352.33322266 292.20042969 352.79535156 291.40820312 353.27148438 C290.22387695 353.96854492 290.22387695 353.96854492 289.015625 354.6796875 C287.44334746 355.61737886 285.87171933 356.55616009 284.30078125 357.49609375 C283.55046631 357.94428467 282.80015137 358.39247559 282.02709961 358.85424805 C279.2797252 360.52725191 276.61924679 362.31809719 273.953125 364.1171875 C265.61573678 369.5076235 257.13508841 374.62953121 248.515625 379.5546875 C240.80185992 383.96768959 233.32954172 388.67237507 225.8984375 393.54296875 C218.05062617 398.68509914 210.07084025 403.60703848 201.82421875 408.0859375 C200.19333685 408.98479517 198.60040873 409.95184222 197.015625 410.9296875 C194.953125 412.1171875 194.953125 412.1171875 192.953125 412.1171875 C192.953125 412.7771875 192.953125 413.4371875 192.953125 414.1171875 C177.43457358 425.26028437 177.43457358 425.26028437 168.953125 424.1171875 C163.63114839 422.03426071 158.87553622 418.86558181 154.203125 415.6171875 C148.1617914 411.50057481 141.98629505 407.66581661 135.703125 403.9296875 C126.58550716 398.50554121 117.6261624 392.92369643 108.828125 386.9921875 C104.74754381 384.25783143 100.6375318 381.7649805 96.3203125 379.4296875 C86.67920809 374.08412466 77.49109467 367.91187638 68.28393555 361.86132812 C58.5669902 355.10445281 58.5669902 355.10445281 47.953125 350.1171875 C43.56195093 345.32681579 41.70655157 341.12430532 41.69242859 334.64117432 C41.68534378 333.55346741 41.67825897 332.4657605 41.67095947 331.34509277 C41.67343689 330.16161255 41.67591431 328.97813232 41.6784668 327.75878906 C41.67335587 326.50455139 41.66824493 325.25031372 41.66297913 323.95806885 C41.65146864 320.52390615 41.64900856 317.089985 41.65154243 313.65581989 C41.65261401 310.78336893 41.64772369 307.91094009 41.642937 305.03849387 C41.63184724 298.25643995 41.63140062 291.47444141 41.63745117 284.69238281 C41.64348354 277.71176922 41.63119761 270.73135757 41.6098811 263.75077844 C41.59222166 257.7454781 41.58627079 251.74024177 41.58951885 245.73491645 C41.59132584 242.15368901 41.58875477 238.57260545 41.57480431 234.99140167 C41.55980728 230.99185757 41.56923388 226.99271956 41.58081055 222.99316406 C41.57316681 221.81778076 41.56552307 220.64239746 41.55764771 219.43139648 C41.60725187 211.6595311 41.98113424 204.39399783 47.390625 198.4296875 C51.21978749 195.65259688 55.58003166 193.75491606 59.82421875 191.703125 C63.69325715 189.74203937 67.27301921 187.47424642 70.90234375 185.10546875 C74.57878314 182.70942822 78.2932863 180.37855221 82.015625 178.0546875 C82.70720703 177.622771 83.39878906 177.19085449 84.11132812 176.74584961 C90.26511538 172.90999866 96.44993325 169.13447488 102.734375 165.515625 C108.08759042 162.43048243 113.34456249 159.24843829 118.515625 155.8671875 C124.74931538 151.80078773 131.14499338 148.06200359 137.60546875 144.36889648 C144.2747947 140.54546335 150.83138131 136.55559452 157.34277344 132.46923828 C158.4047998 131.80964111 158.4047998 131.80964111 159.48828125 131.13671875 C160.110979 130.74589111 160.73367676 130.35506348 161.37524414 129.95239258 C162.953125 129.1171875 162.953125 129.1171875 164.953125 129.1171875 C163.85345725 127.82168851 162.74820699 126.53092679 161.640625 125.2421875 C161.02574219 124.52289063 160.41085937 123.80359375 159.77734375 123.0625 C157.9118926 120.92539419 157.9118926 120.92539419 154.953125 119.1171875 C154.953125 118.4571875 154.953125 117.7971875 154.953125 117.1171875 C154.334375 116.8696875 153.715625 116.6221875 153.078125 116.3671875 C150.54953873 114.87978381 150.23473496 113.68040741 148.953125 111.1171875 C147.10340804 110.06697647 147.10340804 110.06697647 144.953125 109.1171875 C141.70498949 106.68108587 138.67246255 104.13867366 135.953125 101.1171875 C135.953125 100.4571875 135.953125 99.7971875 135.953125 99.1171875 C135.39625 98.8696875 134.839375 98.6221875 134.265625 98.3671875 C130.39611498 96.27556046 126.83503234 93.45413284 123.953125 90.1171875 C123.953125 89.4571875 123.953125 88.7971875 123.953125 88.1171875 C122.963125 87.7871875 121.973125 87.4571875 120.953125 87.1171875 C120.953125 86.4571875 120.953125 85.7971875 120.953125 85.1171875 C120.38078125 84.8490625 119.8084375 84.5809375 119.21875 84.3046875 C116.87427866 83.07586114 114.82907562 81.69196574 112.703125 80.1171875 C111.99671875 79.6015625 111.2903125 79.0859375 110.5625 78.5546875 C110.03140625 78.0803125 109.5003125 77.6059375 108.953125 77.1171875 C108.953125 76.4571875 108.953125 75.7971875 108.953125 75.1171875 C108.334375 74.8078125 107.715625 74.4984375 107.078125 74.1796875 C105.703125 73.4921875 104.328125 72.8046875 102.953125 72.1171875 C102.953125 71.4571875 102.953125 70.7971875 102.953125 70.1171875 C102.44136719 69.89675781 101.92960938 69.67632812 101.40234375 69.44921875 C97.9374822 67.56482036 94.90915552 65.17711167 91.765625 62.8046875 C87.0823702 59.3237613 82.48294848 56.02461501 77.28515625 53.34375 C75.48097916 52.39481934 73.71385979 51.37524833 71.96484375 50.328125 C42.40573009 32.66766263 9.65423999 25.42247767 -24.1328125 33.890625 C-33.83951184 36.72716717 -43.01290382 42.03974066 -50.86328125 48.3984375 C-53.046875 50.1171875 -53.046875 50.1171875 -55.046875 50.1171875 C-55.376875 51.1071875 -55.706875 52.0971875 -56.046875 53.1171875 C-57.09875 53.890625 -57.09875 53.890625 -58.171875 54.6796875 C-62.34940532 58.22150669 -65.04865033 62.56815697 -68.046875 67.1171875 C-68.51480469 67.80296875 -68.98273438 68.48875 -69.46484375 69.1953125 C-74.25030712 76.43976782 -76.96691864 84.3898111 -79.3359375 92.6953125 C-80.046875 95.1171875 -80.046875 95.1171875 -81.07470703 97.6730957 C-82.31707591 102.07442613 -82.33377413 106.09501546 -82.3125 110.64453125 C-82.31441345 111.55167374 -82.3163269 112.45881622 -82.31829834 113.39344788 C-82.31965489 115.30551431 -82.31599559 117.21759011 -82.30761719 119.12963867 C-82.29692264 122.04171651 -82.30752413 124.95317574 -82.3203125 127.86523438 C-82.31899057 129.72916802 -82.31642748 131.59310128 -82.3125 133.45703125 C-82.31654846 134.32077866 -82.32059692 135.18452606 -82.32476807 136.07444763 C-82.28571233 141.16045959 -81.61939489 145.2834672 -80.046875 150.1171875 C-79.881875 151.2928125 -79.716875 152.4684375 -79.546875 153.6796875 C-79.05595025 157.05479516 -78.18281955 159.90981465 -77.046875 163.1171875 C-76.17814979 166.10619118 -75.32864763 169.09984925 -74.49780273 172.09960938 C-72.26085008 180.1607698 -69.96953862 187.93151083 -66.30859375 195.484375 C-64.4243269 199.41625071 -62.80951591 203.45352846 -61.16015625 207.48828125 C-60.110763 210.071922 -60.110763 210.071922 -58.90234375 212.27734375 C-58.046875 214.1171875 -58.046875 214.1171875 -58.046875 217.1171875 C-57.386875 217.1171875 -56.726875 217.1171875 -56.046875 217.1171875 C-55.551875 219.5921875 -55.551875 219.5921875 -55.046875 222.1171875 C-54.386875 222.1171875 -53.726875 222.1171875 -53.046875 222.1171875 C-52.716875 224.0971875 -52.386875 226.0771875 -52.046875 228.1171875 C-51.386875 228.1171875 -50.726875 228.1171875 -50.046875 228.1171875 C-49.551875 230.5921875 -49.551875 230.5921875 -49.046875 233.1171875 C-48.386875 233.1171875 -47.726875 233.1171875 -47.046875 233.1171875 C-45.32423006 236.41268216 -43.75241568 239.44837595 -43.046875 243.1171875 C-42.386875 243.1171875 -41.726875 243.1171875 -41.046875 243.1171875 C-39.71289505 245.02777094 -38.49844562 246.93716854 -37.296875 248.9296875 C-30.96797441 259.11983503 -23.81514442 268.852268 -16.35693359 278.24560547 C-15.046875 280.1171875 -15.046875 280.1171875 -15.046875 282.1171875 C-14.386875 282.1171875 -13.726875 282.1171875 -13.046875 282.1171875 C-12.716875 283.4371875 -12.386875 284.7571875 -12.046875 286.1171875 C-11.386875 286.1171875 -10.726875 286.1171875 -10.046875 286.1171875 C-9.94375 286.7565625 -9.840625 287.3959375 -9.734375 288.0546875 C-9.3940625 289.075625 -9.3940625 289.075625 -9.046875 290.1171875 C-8.056875 290.4471875 -7.066875 290.7771875 -6.046875 291.1171875 C-6.046875 291.7771875 -6.046875 292.4371875 -6.046875 293.1171875 C-5.386875 293.1171875 -4.726875 293.1171875 -4.046875 293.1171875 C-3.94375 293.7565625 -3.840625 294.3959375 -3.734375 295.0546875 C-3.3940625 296.075625 -3.3940625 296.075625 -3.046875 297.1171875 C-2.056875 297.4471875 -1.066875 297.7771875 -0.046875 298.1171875 C1.55859375 299.89453125 1.55859375 299.89453125 3.140625 302.0546875 C3.93533203 303.12009766 3.93533203 303.12009766 4.74609375 304.20703125 C5.953125 306.1171875 5.953125 306.1171875 5.953125 308.1171875 C6.613125 308.1171875 7.273125 308.1171875 7.953125 308.1171875 C9.6796875 309.796875 9.6796875 309.796875 11.578125 311.9921875 C12.20976562 312.71148437 12.84140625 313.43078125 13.4921875 314.171875 C14.953125 316.1171875 14.953125 316.1171875 14.953125 318.1171875 C15.943125 318.4471875 16.933125 318.7771875 17.953125 319.1171875 C22.24656141 322.71095279 23.62066274 327.78995168 24.390625 333.1796875 C23.68562811 337.91323805 21.64760117 341.51228716 18.1796875 344.796875 C13.85581445 347.36085586 8.80358645 346.71864472 3.953125 346.1171875 C1.30022479 345.07462709 0.0634739 344.1102948 -2.046875 342.1171875 C-2.046875 341.4571875 -2.046875 340.7971875 -2.046875 340.1171875 C-2.706875 340.1171875 -3.366875 340.1171875 -4.046875 340.1171875 C-4.376875 338.7971875 -4.706875 337.4771875 -5.046875 336.1171875 C-5.706875 336.1171875 -6.366875 336.1171875 -7.046875 336.1171875 C-8.31616298 334.68998341 -9.51226093 333.19734974 -10.671875 331.6796875 C-13.38455975 328.19685536 -16.14466171 324.8256967 -19.109375 321.5546875 C-22.24082474 318.07193392 -25.15242972 314.48917454 -27.99609375 310.76953125 C-30.13671091 308.00099972 -32.31931424 305.27003346 -34.51171875 302.54248047 C-37.03162062 299.40723582 -39.5399765 296.26283249 -42.046875 293.1171875 C-42.74167969 292.24707031 -43.43648438 291.37695312 -44.15234375 290.48046875 C-48.046875 285.47585733 -48.046875 285.47585733 -48.046875 282.1171875 C-49.036875 281.7871875 -50.026875 281.4571875 -51.046875 281.1171875 C-51.046875 280.1271875 -51.046875 279.1371875 -51.046875 278.1171875 C-52.036875 277.7871875 -53.026875 277.4571875 -54.046875 277.1171875 C-54.046875 276.1271875 -54.046875 275.1371875 -54.046875 274.1171875 C-54.706875 274.1171875 -55.366875 274.1171875 -56.046875 274.1171875 C-60.046875 267.3671875 -60.046875 267.3671875 -60.046875 265.1171875 C-60.706875 265.1171875 -61.366875 265.1171875 -62.046875 265.1171875 C-62.376875 263.4671875 -62.706875 261.8171875 -63.046875 260.1171875 C-63.706875 260.1171875 -64.366875 260.1171875 -65.046875 260.1171875 C-65.376875 258.7971875 -65.706875 257.4771875 -66.046875 256.1171875 C-66.706875 256.1171875 -67.366875 256.1171875 -68.046875 256.1171875 C-72.86813865 249.17151481 -76.51142861 241.33038485 -80.22265625 233.7578125 C-81.77880596 230.60977864 -83.44249415 227.53086394 -85.13208008 224.45288086 C-88.59578201 218.12973399 -91.48682516 211.83823034 -93.9609375 205.046875 C-94.93263486 202.42538932 -96.00369141 199.9055714 -97.171875 197.3671875 C-100.14672205 190.79373516 -102.12366387 184.16321054 -103.57421875 177.10546875 C-104.01782512 174.9752858 -104.01782512 174.9752858 -105.171875 172.5546875 C-106.44452553 169.00944674 -106.17414045 165.87151815 -106.046875 162.1171875 C-106.706875 162.1171875 -107.366875 162.1171875 -108.046875 162.1171875 C-109.36151537 157.65175617 -109.41082236 153.12707 -109.66796875 148.50390625 C-109.93874069 145.10195209 -109.93874069 145.10195209 -111.05615234 141.90917969 C-112.10938158 137.87794349 -112.31946913 134.18791385 -112.27734375 130.05859375 C-112.27688553 129.3106102 -112.27642731 128.56262665 -112.2759552 127.79197693 C-112.27295207 126.21961875 -112.26512447 124.64726302 -112.25268555 123.07495117 C-112.23445255 120.68983209 -112.23217616 118.30510339 -112.23242188 115.91992188 C-112.22750425 114.3828092 -112.22167487 112.84569911 -112.21484375 111.30859375 C-112.21373093 110.60626114 -112.2126181 109.90392853 -112.21147156 109.18031311 C-112.08885976 96.15917226 -112.08885976 96.15917226 -110.046875 94.1171875 C-109.69666831 92.41618359 -109.39185447 90.70574064 -109.109375 88.9921875 C-108.1554231 83.51052361 -106.80642678 78.39584283 -105.046875 73.1171875 C-104.386875 73.1171875 -103.726875 73.1171875 -103.046875 73.1171875 C-102.96695313 72.29734375 -102.88703125 71.4775 -102.8046875 70.6328125 C-101.85817318 66.2417667 -100.06163815 62.78767549 -97.921875 58.8671875 C-97.52025146 58.12154541 -97.11862793 57.37590332 -96.70483398 56.60766602 C-90.3163765 44.9307252 -90.3163765 44.9307252 -86.046875 40.1171875 C-85.386875 40.1171875 -84.726875 40.1171875 -84.046875 40.1171875 C-83.716875 39.1271875 -83.386875 38.1371875 -83.046875 37.1171875 C-82.386875 37.1171875 -81.726875 37.1171875 -81.046875 37.1171875 C-80.716875 36.1271875 -80.386875 35.1371875 -80.046875 34.1171875 C-79.386875 34.1171875 -78.726875 34.1171875 -78.046875 34.1171875 C-77.78648437 33.52421875 -77.52609375 32.93125 -77.2578125 32.3203125 C-72.12525198 22.98236369 -58.83548021 15.90141088 -49.28125 12.0390625 C-47.00844262 11.13635962 -47.00844262 11.13635962 -44.75 9.9453125 C-30.80586204 2.92993874 -15.42166261 0.59314087 0 0 Z M155.765625 159.3046875 C143.34439893 168.4341265 129.53219736 175.67629549 116.140625 183.2734375 C111.63555393 185.87931194 107.21261852 188.60781763 102.79296875 191.35546875 C100.90601998 192.52605182 99.00208177 193.66969833 97.08203125 194.78515625 C96.37949219 195.22472656 95.67695313 195.66429687 94.953125 196.1171875 C94.953125 196.4471875 94.953125 196.7771875 94.953125 197.1171875 C101.47400053 197.33224582 107.47746316 196.49425179 113.890625 195.3671875 C129.5208464 192.73165786 145.20996308 190.96157467 160.953125 189.1171875 C160.953125 178.2271875 160.953125 167.3371875 160.953125 156.1171875 C159.00478204 156.1171875 157.21950861 158.18364847 155.765625 159.3046875 Z M183.953125 157.1171875 C183.953125 167.3471875 183.953125 177.5771875 183.953125 188.1171875 C190.87778775 189.70048534 190.87778775 189.70048534 197.80761719 190.86328125 C198.6458905 190.97679932 199.48416382 191.09031738 200.34783936 191.20727539 C201.22305237 191.32192139 202.09826538 191.43656738 203 191.5546875 C203.93305969 191.68029053 204.86611938 191.80589355 205.82745361 191.93530273 C208.7855373 192.3329016 211.74427723 192.72531917 214.703125 193.1171875 C218.59399149 193.63622601 222.48456288 194.15744104 226.375 194.6796875 C227.30139282 194.80375977 228.22778564 194.92783203 229.18225098 195.05566406 C236.12019867 195.9904035 243.04129205 197.00396002 249.953125 198.1171875 C249.953125 197.4571875 249.953125 196.7971875 249.953125 196.1171875 C247.43897206 194.50703386 244.9275215 193.01584411 242.328125 191.5546875 C236.64579822 188.2957584 231.05342927 184.96356698 225.578125 181.3671875 C220.71258835 178.18420965 215.75197061 175.31237101 210.6171875 172.5859375 C204.66319592 169.30338496 198.99218304 165.52735965 193.390625 161.6796875 C191.15505007 159.9372988 191.15505007 159.9372988 188.953125 160.1171875 C188.953125 159.4571875 188.953125 158.7971875 188.953125 158.1171875 C187.303125 157.7871875 185.653125 157.4571875 183.953125 157.1171875 Z M194.953125 211.1171875 C198.00189932 217.59407673 201.43276247 223.61544596 205.40234375 229.57421875 C206.90101633 232.03173978 207.96935924 234.41788932 208.953125 237.1171875 C209.613125 237.1171875 210.273125 237.1171875 210.953125 237.1171875 C211.283125 238.7671875 211.613125 240.4171875 211.953125 242.1171875 C212.613125 242.1171875 213.273125 242.1171875 213.953125 242.1171875 C214.283125 243.7671875 214.613125 245.4171875 214.953125 247.1171875 C215.613125 247.1171875 216.273125 247.1171875 216.953125 247.1171875 C217.22898437 247.83261719 217.50484375 248.54804688 217.7890625 249.28515625 C218.93561022 252.07457605 220.21539615 254.74009108 221.578125 257.4296875 C222.02414062 258.31269531 222.47015625 259.19570313 222.9296875 260.10546875 C223.26742188 260.76933594 223.60515625 261.43320312 223.953125 262.1171875 C224.613125 262.1171875 225.273125 262.1171875 225.953125 262.1171875 C226.283125 263.7671875 226.613125 265.4171875 226.953125 267.1171875 C227.613125 267.1171875 228.273125 267.1171875 228.953125 267.1171875 C229.34177734 268.4165625 229.34177734 268.4165625 229.73828125 269.7421875 C230.97296825 273.17231473 232.50514441 276.00310343 234.390625 279.1171875 C236.75971516 283.04690941 238.94489208 286.99017673 240.953125 291.1171875 C241.283125 290.4571875 241.613125 289.7971875 241.953125 289.1171875 C242.613125 289.1171875 243.273125 289.1171875 243.953125 289.1171875 C244.283125 286.1471875 244.613125 283.1771875 244.953125 280.1171875 C245.613125 280.1171875 246.273125 280.1171875 246.953125 280.1171875 C247.62370387 278.3269814 248.2894719 276.53497261 248.953125 274.7421875 C249.324375 273.74445313 249.695625 272.74671875 250.078125 271.71875 C251.05938777 269.25870689 251.05938777 269.25870689 250.953125 267.1171875 C251.613125 267.1171875 252.273125 267.1171875 252.953125 267.1171875 C253.283125 264.8071875 253.613125 262.4971875 253.953125 260.1171875 C254.613125 260.1171875 255.273125 260.1171875 255.953125 260.1171875 C256.283125 257.8071875 256.613125 255.4971875 256.953125 253.1171875 C257.613125 253.1171875 258.273125 253.1171875 258.953125 253.1171875 C259.42492187 251.86615234 259.42492187 251.86615234 259.90625 250.58984375 C262.40988718 244.00648454 265.01599447 237.51802575 267.953125 231.1171875 C268.70662443 229.47295334 269.45666816 227.82713084 270.203125 226.1796875 C270.53828125 225.44878906 270.8734375 224.71789062 271.21875 223.96484375 C272.07624412 222.13880011 272.07624412 222.13880011 271.953125 220.1171875 C271.22364655 220.03393219 270.49416809 219.95067688 269.74258423 219.86489868 C262.82862393 219.07504872 255.91514213 218.28112345 249.00216103 217.48275185 C245.44911774 217.07255733 241.89591467 216.66387612 238.34228516 216.25878906 C234.90536477 215.86694725 231.46894483 215.47095316 228.03281784 215.07221603 C226.10021485 214.84900822 224.16713124 214.62997421 222.23403931 214.41104126 C216.09988155 213.69571114 210.07669856 212.85603367 204.04769897 211.50619507 C200.96898151 210.93441083 198.07503227 210.9814524 194.953125 211.1171875 Z M139.546875 211.95703125 C130.83275744 213.33838927 122.07872173 214.33943242 113.31494141 215.34936523 C110.45821739 215.67909972 107.60214556 216.01410784 104.74609375 216.34960938 C95.91555517 217.37777417 87.11298664 218.35517624 78.23632812 218.88647461 C75.92442827 218.9836085 75.92442827 218.9836085 73.953125 220.1171875 C73.953125 221.4371875 73.953125 222.7571875 73.953125 224.1171875 C74.613125 224.1171875 75.273125 224.1171875 75.953125 224.1171875 C76.015 224.8803125 76.076875 225.6434375 76.140625 226.4296875 C77.08380774 230.71028608 78.74521767 234.26434754 80.609375 238.21484375 C82.56833768 242.44597535 84.26594974 246.7720043 85.953125 251.1171875 C86.613125 251.1171875 87.273125 251.1171875 87.953125 251.1171875 C88.283125 253.4271875 88.613125 255.7371875 88.953125 258.1171875 C89.613125 258.1171875 90.273125 258.1171875 90.953125 258.1171875 C91.05625 258.9628125 91.159375 259.8084375 91.265625 260.6796875 C92.0360104 264.53161451 93.31587014 267.55793781 94.953125 271.1171875 C95.613125 271.1171875 96.273125 271.1171875 96.953125 271.1171875 C97.035625 271.9421875 97.118125 272.7671875 97.203125 273.6171875 C97.98327607 277.25789251 99.24249999 279.95178521 100.96484375 283.21484375 C102.12936571 285.45643345 103.06663399 287.75321147 103.953125 290.1171875 C104.943125 289.6221875 104.943125 289.6221875 105.953125 289.1171875 C106.60867619 286.58985515 106.60867619 286.58985515 106.953125 284.1171875 C107.613125 284.1171875 108.273125 284.1171875 108.953125 284.1171875 C109.324375 283.1478125 109.695625 282.1784375 110.078125 281.1796875 C111.7593349 277.23561688 114.03961443 273.85868671 116.45703125 270.33203125 C120.31406347 265.10319074 120.31406347 265.10319074 121.953125 259.1171875 C122.613125 259.1171875 123.273125 259.1171875 123.953125 259.1171875 C124.62720808 257.85027243 125.29212997 256.57848001 125.953125 255.3046875 C126.324375 254.59699219 126.695625 253.88929688 127.078125 253.16015625 C128.14997858 251.02798021 128.14997858 251.02798021 127.953125 248.1171875 C128.613125 248.1171875 129.273125 248.1171875 129.953125 248.1171875 C130.38133545 247.37146484 130.8095459 246.62574219 131.25073242 245.85742188 C132.8616722 243.05366876 134.47397324 240.25070401 136.0871582 237.44824219 C136.78105211 236.24216935 137.47442475 235.03579645 138.16723633 233.82910156 C139.17127036 232.08055999 140.17719336 230.33311795 141.18359375 228.5859375 C141.82603027 227.46960938 142.4684668 226.35328125 143.13037109 225.203125 C144.68725492 222.56730776 146.31499694 220.01270363 148.00390625 217.4609375 C148.64714844 216.3575 149.29039062 215.2540625 149.953125 214.1171875 C149.458125 212.6321875 149.458125 212.6321875 148.953125 211.1171875 C145.60361331 211.1171875 142.82383874 211.40586081 139.546875 211.95703125 Z M171.953125 218.1171875 C171.623125 219.7671875 171.293125 221.4171875 170.953125 223.1171875 C170.293125 223.1171875 169.633125 223.1171875 168.953125 223.1171875 C168.623125 224.7671875 168.293125 226.4171875 167.953125 228.1171875 C167.293125 228.1171875 166.633125 228.1171875 165.953125 228.1171875 C165.623125 229.7671875 165.293125 231.4171875 164.953125 233.1171875 C164.293125 233.1171875 163.633125 233.1171875 162.953125 233.1171875 C162.4271875 234.261875 162.4271875 234.261875 161.890625 235.4296875 C159.86600167 239.49812491 157.35345768 243.24544649 154.8671875 247.04296875 C153.35977936 249.46405081 151.96003381 251.88484014 150.58984375 254.3828125 C147.47553341 260.04643197 144.05055998 265.50712758 140.61914062 270.98242188 C140.14541016 271.74748047 139.67167969 272.51253906 139.18359375 273.30078125 C138.75457764 273.98712646 138.32556152 274.67347168 137.88354492 275.38061523 C136.79570296 277.08265319 136.79570296 277.08265319 136.953125 279.1171875 C136.293125 279.1171875 135.633125 279.1171875 134.953125 279.1171875 C134.293125 280.2309375 133.633125 281.3446875 132.953125 282.4921875 C132.581875 283.11867188 132.210625 283.74515625 131.828125 284.390625 C130.80244152 286.09191417 130.80244152 286.09191417 130.953125 288.1171875 C130.293125 288.1171875 129.633125 288.1171875 128.953125 288.1171875 C128.28157567 289.40632237 127.61603641 290.69858954 126.953125 291.9921875 C126.39625 293.07113281 126.39625 293.07113281 125.828125 294.171875 C124.81638754 296.06567727 124.81638754 296.06567727 124.953125 298.1171875 C124.293125 298.1171875 123.633125 298.1171875 122.953125 298.1171875 C122.623125 299.4371875 122.293125 300.7571875 121.953125 302.1171875 C124.23797053 303.25961027 125.48995388 303.24059094 128.02798462 303.23744202 C129.30685295 303.23950401 129.30685295 303.23950401 130.61155701 303.24160767 C131.54879105 303.23801239 132.48602509 303.23441711 133.45166016 303.23071289 C134.43706284 303.23085892 135.42246552 303.23100494 136.43772888 303.2311554 C139.70590389 303.23045683 142.97402241 303.22266705 146.2421875 303.21484375 C148.50377369 303.21297937 150.76536028 303.21155556 153.02694702 303.21055603 C158.98804839 303.20673243 164.94912551 303.19690346 170.91021729 303.18585205 C176.98962069 303.17563457 183.06902799 303.17105769 189.1484375 303.16601562 C201.08334401 303.15528107 213.01823249 303.13820652 224.953125 303.1171875 C224.10427734 301.63605469 224.10427734 301.63605469 223.23828125 300.125 C222.49736741 298.83074544 221.75648355 297.53647371 221.015625 296.2421875 C220.64244141 295.59121094 220.26925781 294.94023437 219.88476562 294.26953125 C217.06640625 289.34375 217.06640625 289.34375 215.953125 287.1171875 C215.293125 287.1171875 214.633125 287.1171875 213.953125 287.1171875 C213.623125 285.4671875 213.293125 283.8171875 212.953125 282.1171875 C212.293125 282.1171875 211.633125 282.1171875 210.953125 282.1171875 C210.623125 280.4671875 210.293125 278.8171875 209.953125 277.1171875 C209.293125 277.1171875 208.633125 277.1171875 207.953125 277.1171875 C207.71078125 276.44042969 207.4684375 275.76367188 207.21875 275.06640625 C205.68406088 271.49020167 203.73246071 268.23876174 201.703125 264.9296875 C200.89187174 263.59378361 200.08067394 262.25784603 199.26953125 260.921875 C198.67615967 259.94879395 198.67615967 259.94879395 198.07080078 258.95605469 C196.5773079 256.49887068 195.1095181 254.02663547 193.640625 251.5546875 C192.11210056 249.00154778 190.55412722 246.52473625 188.890625 244.0546875 C186.8545256 240.96769809 185.08869359 237.80138576 183.31640625 234.55859375 C181.39216688 231.11260634 179.34105822 227.74754773 177.28515625 224.37890625 C176.07714219 222.32776214 174.98774102 220.25997044 173.953125 218.1171875 C173.293125 218.1171875 172.633125 218.1171875 171.953125 218.1171875 Z M280.953125 251.1171875 C280.458125 252.1896875 279.963125 253.2621875 279.453125 254.3671875 C279.1746875 254.97046875 278.89625 255.57375 278.609375 256.1953125 C277.73769576 258.40961586 277.73769576 258.40961586 277.953125 262.1171875 C277.293125 262.1171875 276.633125 262.1171875 275.953125 262.1171875 C275.61539062 263.08140625 275.27765625 264.045625 274.9296875 265.0390625 C274.47930288 266.31515225 274.02877447 267.59119126 273.578125 268.8671875 C273.35640625 269.50140625 273.1346875 270.135625 272.90625 270.7890625 C271.98292835 273.39608834 271.05423938 275.92038771 269.7890625 278.3828125 C268.7360342 280.2467139 268.7360342 280.2467139 268.953125 283.1171875 C268.293125 283.1171875 267.633125 283.1171875 266.953125 283.1171875 C266.623125 285.4271875 266.293125 287.7371875 265.953125 290.1171875 C265.293125 290.1171875 264.633125 290.1171875 263.953125 290.1171875 C263.60378906 290.97183594 263.25445313 291.82648438 262.89453125 292.70703125 C262.43949219 293.81175781 261.98445313 294.91648437 261.515625 296.0546875 C260.83693359 297.70791016 260.83693359 297.70791016 260.14453125 299.39453125 C258.953125 302.1171875 258.953125 302.1171875 257.953125 303.1171875 C257.91248668 304.78335865 257.910404 306.45106845 257.953125 308.1171875 C258.64277344 308.48070312 259.33242188 308.84421875 260.04296875 309.21875 C277.0542486 318.31943469 277.0542486 318.31943469 278.953125 322.1171875 C280.438125 321.6221875 280.438125 321.6221875 281.953125 321.1171875 C281.953125 298.0171875 281.953125 274.9171875 281.953125 251.1171875 C281.623125 251.1171875 281.293125 251.1171875 280.953125 251.1171875 Z M63.953125 254.1171875 C63.953125 276.2271875 63.953125 298.3371875 63.953125 321.1171875 C68.46383307 320.21504589 70.04169562 319.66737272 73.59765625 317.17578125 C74.43876953 316.59248047 75.27988281 316.00917969 76.14648438 315.40820312 C77.01080078 314.79654297 77.87511719 314.18488281 78.765625 313.5546875 C79.64927734 312.93916016 80.53292969 312.32363281 81.44335938 311.68945312 C83.61856657 310.17268703 85.78812314 308.64846833 87.953125 307.1171875 C87.623125 305.1371875 87.293125 303.1571875 86.953125 301.1171875 C86.293125 301.1171875 85.633125 301.1171875 84.953125 301.1171875 C84.85 300.4571875 84.746875 299.7971875 84.640625 299.1171875 C83.76098936 295.27877741 82.38342604 291.78622059 80.953125 288.1171875 C80.293125 288.1171875 79.633125 288.1171875 78.953125 288.1171875 C78.623125 285.8071875 78.293125 283.4971875 77.953125 281.1171875 C77.293125 281.1171875 76.633125 281.1171875 75.953125 281.1171875 C75.85 280.2921875 75.746875 279.4671875 75.640625 278.6171875 C74.83666444 274.52429738 73.48960342 270.99178525 71.953125 267.1171875 C71.293125 267.1171875 70.633125 267.1171875 69.953125 267.1171875 C69.623125 264.4771875 69.293125 261.8371875 68.953125 259.1171875 C68.293125 259.1171875 67.633125 259.1171875 66.953125 259.1171875 C66.623125 257.4671875 66.293125 255.8171875 65.953125 254.1171875 C65.293125 254.1171875 64.633125 254.1171875 63.953125 254.1171875 Z M127.953125 323.1171875 C127.953125 326.88105643 128.95733491 327.82399456 131.203125 330.8046875 C131.92886719 331.77664063 132.65460938 332.74859375 133.40234375 333.75 C134.25227134 334.87264789 135.10255542 335.99502594 135.953125 337.1171875 C137.97609674 339.80308099 139.99585254 342.4913877 142.015625 345.1796875 C142.53874268 345.87489502 143.06186035 346.57010254 143.60083008 347.28637695 C146.80655236 351.5561219 149.92745531 355.86858461 152.95703125 360.265625 C156.4393323 365.24034078 160.02555639 370.14104708 163.59936523 375.05029297 C164.14665283 375.80455566 164.69394043 376.55881836 165.2578125 377.3359375 C165.75265137 378.01591797 166.24749023 378.69589844 166.75732422 379.39648438 C167.953125 381.1171875 167.953125 381.1171875 168.953125 383.1171875 C169.613125 383.1171875 170.273125 383.1171875 170.953125 383.1171875 C171.283125 384.1071875 171.613125 385.0971875 171.953125 386.1171875 C175.98864754 384.61827913 177.35885981 382.31289598 179.515625 378.6796875 C181.45961313 375.42816169 183.2512857 372.751854 185.953125 370.1171875 C186.68014982 368.93221467 187.36888817 367.72282033 188.015625 366.4921875 C189.953125 363.1171875 189.953125 363.1171875 191.953125 362.1171875 C192.95869972 360.45387837 193.95703399 358.78619333 194.953125 357.1171875 C197.47908536 353.63278889 200.12195719 350.23498173 202.74609375 346.82421875 C203.27074219 346.13457031 203.79539062 345.44492187 204.3359375 344.734375 C204.81434082 344.11159668 205.29274414 343.48881836 205.78564453 342.84716797 C207.13795059 341.01030993 207.13795059 341.01030993 207.953125 338.1171875 C208.613125 338.1171875 209.273125 338.1171875 209.953125 338.1171875 C210.283125 336.7971875 210.613125 335.4771875 210.953125 334.1171875 C211.613125 334.1171875 212.273125 334.1171875 212.953125 334.1171875 C214.54661361 332.17104223 214.54661361 332.17104223 216.078125 329.7421875 C216.61695313 328.93007813 217.15578125 328.11796875 217.7109375 327.28125 C219.1190663 325.24396724 219.1190663 325.24396724 218.953125 323.1171875 C188.923125 323.1171875 158.893125 323.1171875 127.953125 323.1171875 Z M87.203125 332.4296875 C86.21957031 333.02458984 85.23601562 333.61949219 84.22265625 334.23242188 C83.29324219 334.80927734 82.36382812 335.38613281 81.40625 335.98046875 C80.12476074 336.77384644 80.12476074 336.77384644 78.81738281 337.58325195 C78.20217773 338.08945068 77.58697266 338.59564941 76.953125 339.1171875 C76.953125 340.1071875 76.953125 341.0971875 76.953125 342.1171875 C77.55785645 342.45451904 78.16258789 342.79185059 78.78564453 343.1394043 C81.55343697 344.68810684 84.31577568 346.24629863 87.078125 347.8046875 C88.50511719 348.60036133 88.50511719 348.60036133 89.9609375 349.41210938 C95.0738535 352.30587781 99.52238669 355.27500995 103.953125 359.1171875 C105.50480383 360.0471672 107.08932543 360.92474001 108.703125 361.7421875 C131.48036155 373.8338069 131.48036155 373.8338069 139.54296875 381.97265625 C141.03865055 383.43228134 141.03865055 383.43228134 143.953125 383.1171875 C142.963125 380.6421875 142.963125 380.6421875 141.953125 378.1171875 C141.293125 378.1171875 140.633125 378.1171875 139.953125 378.1171875 C139.664375 377.5190625 139.375625 376.9209375 139.078125 376.3046875 C137.90570474 373.92390958 137.90570474 373.92390958 135.953125 371.1171875 C135.293125 371.1171875 134.633125 371.1171875 133.953125 371.1171875 C133.664375 370.3540625 133.375625 369.5909375 133.078125 368.8046875 C131.99043487 365.96689442 131.99043487 365.96689442 129.953125 363.1171875 C129.293125 363.1171875 128.633125 363.1171875 127.953125 363.1171875 C127.664375 362.3540625 127.375625 361.5909375 127.078125 360.8046875 C125.99043487 357.96689442 125.99043487 357.96689442 123.953125 355.1171875 C123.293125 355.1171875 122.633125 355.1171875 121.953125 355.1171875 C121.458125 353.1371875 121.458125 353.1371875 120.953125 351.1171875 C120.293125 351.1171875 119.633125 351.1171875 118.953125 351.1171875 C117.61979167 348.45052083 116.28645833 345.78385417 114.953125 343.1171875 C114.293125 343.1171875 113.633125 343.1171875 112.953125 343.1171875 C112.458125 341.1371875 112.458125 341.1371875 111.953125 339.1171875 C111.293125 339.1171875 110.633125 339.1171875 109.953125 339.1171875 C109.458125 337.1371875 109.458125 337.1371875 108.953125 335.1171875 C108.293125 335.1171875 107.633125 335.1171875 106.953125 335.1171875 C106.623125 333.7971875 106.293125 332.4771875 105.953125 331.1171875 C105.293125 331.1171875 104.633125 331.1171875 103.953125 331.1171875 C103.293125 329.4671875 102.633125 327.8171875 101.953125 326.1171875 C95.96775294 326.1171875 92.17777196 329.31308112 87.203125 332.4296875 Z M243.953125 326.1171875 C242.4502933 327.62146404 242.4502933 327.62146404 241.09765625 329.66796875 C240.56124512 330.42456787 240.02483398 331.18116699 239.47216797 331.96069336 C238.90900879 332.77546143 238.34584961 333.59022949 237.765625 334.4296875 C236.59769495 336.08336067 235.42972627 337.73700655 234.26171875 339.390625 C233.41262939 340.60443848 233.41262939 340.60443848 232.54638672 341.84277344 C230.49887735 344.76563541 228.42039509 347.66369233 226.328125 350.5546875 C225.73773437 351.37839844 225.14734375 352.20210937 224.5390625 353.05078125 C222.953125 355.1171875 222.953125 355.1171875 221.2421875 356.77734375 C219.72201879 358.04752052 219.72201879 358.04752052 219.953125 360.1171875 C219.293125 360.1171875 218.633125 360.1171875 217.953125 360.1171875 C216.39422118 362.03026402 216.39422118 362.03026402 214.890625 364.4296875 C214.36339844 365.23019531 213.83617187 366.03070312 213.29296875 366.85546875 C211.82304951 369.15499043 211.82304951 369.15499043 210.953125 372.1171875 C210.293125 372.1171875 209.633125 372.1171875 208.953125 372.1171875 C207.14245126 373.83050739 207.14245126 373.83050739 205.328125 375.9921875 C204.69648437 376.71148438 204.06484375 377.43078125 203.4140625 378.171875 C201.75295377 379.97825683 201.75295377 379.97825683 201.953125 382.1171875 C205.81950741 381.58204807 207.89378472 380.66263931 210.828125 378.1171875 C214.78594536 374.896931 218.87698182 372.25339079 223.265625 369.6796875 C228.97162402 366.32893969 234.49879901 362.80085301 239.98046875 359.08984375 C244.21597422 356.27916009 248.55765328 353.65183934 252.8984375 351.0078125 C256.34577996 348.87416321 259.70980275 346.63947035 263.05078125 344.34375 C264.96154947 343.11175571 266.90222082 342.09467858 268.953125 341.1171875 C268.953125 340.4571875 268.953125 339.7971875 268.953125 339.1171875 C264.93088978 336.12629464 260.59599043 333.75033764 256.19921875 331.35546875 C254.12989826 330.21464336 252.10556339 329.01772146 250.078125 327.8046875 C247.10509199 325.87961304 247.10509199 325.87961304 243.953125 326.1171875 Z " fill="#0E0E0E" transform="translate(339.046875,168.8828125)"/>
<path d="M0 0 C1.28608154 0.15275391 1.28608154 0.15275391 2.59814453 0.30859375 C31.45192411 3.78715173 60.26685434 12.27204328 85 28 C86.10214844 28.69996094 87.20429688 29.39992188 88.33984375 30.12109375 C89.53957009 30.89244026 90.73878018 31.66459023 91.9375 32.4375 C92.82985352 33.01081055 92.82985352 33.01081055 93.74023438 33.59570312 C94.91971464 34.35495326 96.09733287 35.11710485 97.27294922 35.88232422 C98.43451233 36.63403979 99.60301679 37.37512579 100.77783203 38.10595703 C102.2190848 39.01927219 103.61470258 40.00385484 105 41 C105 41.66 105 42.32 105 43 C105.72574219 43.2578125 106.45148438 43.515625 107.19921875 43.78125 C110.12047667 45.05242499 112.30872649 46.54016402 114.8125 48.5 C115.60269531 49.1084375 116.39289063 49.716875 117.20703125 50.34375 C117.79871094 50.8903125 118.39039063 51.436875 119 52 C119 52.66 119 53.32 119 54 C119.556875 54.2475 120.11375 54.495 120.6875 54.75 C123.42410913 56.22924818 125.67650869 57.93467439 128 60 C128 60.66 128 61.32 128 62 C128.66 62 129.32 62 130 62 C132.625 64.375 132.625 64.375 135 67 C135 67.66 135 68.32 135 69 C135.99 69.33 136.98 69.66 138 70 C139.1875 72.5625 139.1875 72.5625 140 75 C140.66 75 141.32 75 142 75 C142.66 75.66 143.32 76.32 144 77 C144.66 77 145.32 77 146 77 C146 76.34 146 75.68 146 75 C146.66 75 147.32 75 148 75 C148.4021875 73.7934375 148.4021875 73.7934375 148.8125 72.5625 C149.204375 71.716875 149.59625 70.87125 150 70 C151.485 69.505 151.485 69.505 153 69 C153 68.34 153 67.68 153 67 C153.66 67 154.32 67 155 67 C155 66.34 155 65.68 155 65 C156.609375 63.4140625 156.609375 63.4140625 158.75 61.625 C161.06903702 59.66242273 163.25219284 57.7411705 165.375 55.5625 C167 54 167 54 169 54 C169 53.34 169 52.68 169 52 C170.4609375 50.7109375 170.4609375 50.7109375 172.375 49.375 C173.00148438 48.92898438 173.62796875 48.48296875 174.2734375 48.0234375 C176 47 176 47 178 47 C178 46.34 178 45.68 178 45 C179.65 44.34 181.3 43.68 183 43 C183 42.34 183 41.68 183 41 C187.38461538 38 187.38461538 38 190 38 C190 37.34 190 36.68 190 36 C192.07888712 34.52313012 194.13283374 33.18604262 196.3125 31.875 C196.90740234 31.50246094 197.50230469 31.12992188 198.11523438 30.74609375 C202.61661516 28 202.61661516 28 206 28 C206 27.34 206 26.68 206 26 C209.17316706 23.78839872 212.54401641 22.32222873 216.09301758 20.81860352 C217.92320321 20.03296628 219.73748226 19.21058287 221.55078125 18.38671875 C253.59838182 3.82621114 288.80190981 -2.96915893 324 -2 C325.71509766 -1.95746094 325.71509766 -1.95746094 327.46484375 -1.9140625 C353.91704985 -0.80417973 391.23913586 0.82609057 414 16 C414 16.66 414 17.32 414 18 C414.66 18 415.32 18 416 18 C416.33 19.98 416.66 21.96 417 24 C417.66 24 418.32 24 419 24 C419 25.32 419 26.64 419 28 C419.66 28 420.32 28 421 28 C421 29.98 421 31.96 421 34 C421.66 34 422.32 34 423 34 C423.33 36.97 423.66 39.94 424 43 C424.66 43 425.32 43 426 43 C426 43.99 426 44.98 426 46 C426.66 46 427.32 46 428 46 C428.23783203 46.83917969 428.23783203 46.83917969 428.48046875 47.6953125 C431.40355242 57.74038457 434.67352018 67.73197381 439.30078125 77.1328125 C440 79 440 79 440 83 C440.66 83 441.32 83 442 83 C442.25523437 83.92619141 442.25523437 83.92619141 442.515625 84.87109375 C443.79872283 89.35511116 445.19082694 93.59177474 447.1875 97.8125 C448.68280243 101.01915617 449.46483735 103.39751052 449 107 C449.66 107 450.32 107 451 107 C451.50757862 108.41396902 452.00574925 109.83131729 452.5 111.25 C452.91765625 112.43335938 452.91765625 112.43335938 453.34375 113.640625 C454 116 454 116 454 120 C454.66 120 455.32 120 456 120 C456 121.65 456 123.3 456 125 C456.66 125 457.32 125 458 125 C458 126.65 458 128.3 458 130 C458.66 130 459.32 130 460 130 C460.23074219 130.81082031 460.46148438 131.62164063 460.69921875 132.45703125 C462.36503564 138.11290755 464.11940572 143.49714208 466.6875 148.8125 C468.84320259 153.32228272 469.71821817 157.02185427 470 162 C470.66 162 471.32 162 472 162 C472 163.65 472 165.3 472 167 C472.66 167 473.32 167 474 167 C474.50757862 168.41396902 475.00574925 169.83131729 475.5 171.25 C475.91765625 172.43335938 475.91765625 172.43335938 476.34375 173.640625 C477 176 477 176 477 180 C477.66 180 478.32 180 479 180 C480.31626692 183.61973402 481 186.09567131 481 190 C481.66 190 482.32 190 483 190 C483.50757862 191.41396902 484.00574925 192.83131729 484.5 194.25 C484.91765625 195.43335938 484.91765625 195.43335938 485.34375 196.640625 C486 199 486 199 486 203 C486.66 203 487.32 203 488 203 C488 204.65 488 206.3 488 208 C488.66 208 489.32 208 490 208 C493.44419134 217.41002278 493.44419134 217.41002278 493 222 C493.66 222 494.32 222 495 222 C495.71614583 223.92057292 496.43229167 225.84114583 497.1484375 227.76171875 C497.74689103 229.33471816 498.39643585 230.88876053 499.08203125 232.42578125 C500.96384717 237.70287355 500.87226002 243.72243217 498.875 248.9375 C494.78865902 253.43247508 490.62852448 255.81111793 484.5859375 256.22265625 C479.03897654 255.74504783 474.05846083 253.18656049 469 251 C457.22508882 246.02722569 445.21758561 242.09524782 433 238.375 C432.2465329 238.14520447 431.4930658 237.91540894 430.71676636 237.6786499 C409.1886829 230.97445537 409.1886829 230.97445537 387.25 225.875 C386.41057861 225.71668701 385.57115723 225.55837402 384.70629883 225.39526367 C371.91488696 223.12532214 358.93487837 222.09216752 346 221 C345.13906738 220.92652344 344.27813477 220.85304688 343.39111328 220.77734375 C338.92911715 220.4101495 334.47398465 220.16030564 330 220 C329.35401855 219.97276855 328.70803711 219.94553711 328.04248047 219.91748047 C286.31393876 218.33436471 244.06205869 229.10025212 208.69506836 251.20629883 C204.19715398 254 204.19715398 254 202 254 C202 254.66 202 255.32 202 256 C200.01310269 257.35278115 198.01254782 258.68568305 196 260 C195.67 260.66 195.34 261.32 195 262 C194.34 262 193.68 262 193 262 C192.731875 262.721875 192.46375 263.44375 192.1875 264.1875 C191.00098638 266.99766383 189.72514361 269.48416557 188 272 C187.34 272 186.68 272 186 272 C186 272.66 186 273.32 186 274 C184.5390625 275.2890625 184.5390625 275.2890625 182.625 276.625 C181.99851562 277.07101562 181.37203125 277.51703125 180.7265625 277.9765625 C179 279 179 279 177 279 C177 279.66 177 280.32 177 281 C160.37065564 288.49950824 133.17638607 289.09032206 115.75 283.25 C111.35060817 281.36944873 107.65483483 279.08630497 104 276 C104 275.34 104 274.68 104 274 C102.68 273.34 101.36 272.68 100 272 C100 271.34 100 270.68 100 270 C99.34 270 98.68 270 98 270 C95.95830515 267.09451118 95 265.59857954 95 262 C94.34 262 93.68 262 93 262 C91.31237149 260.3545622 89.6459651 258.68711423 88 257 C87.34 256.67 86.68 256.34 86 256 C86 255.34 86 254.68 86 254 C85.33871094 253.76152344 84.67742187 253.52304687 83.99609375 253.27734375 C80.17799717 251.64955029 76.65753797 249.62872888 73.0625 247.5625 C64.59879582 242.718195 56.05073242 238.64286849 47 235 C45.80117188 234.51144531 44.60234375 234.02289062 43.3671875 233.51953125 C24.0356228 225.82263564 4.65554616 222.85601565 -16 221 C-17.11810059 220.89196045 -17.11810059 220.89196045 -18.25878906 220.78173828 C-36.2072147 219.0476131 -53.82922862 220.15337604 -71.6875 222.1875 C-72.70046143 222.30081665 -73.71342285 222.4141333 -74.75708008 222.53088379 C-112.65493578 226.80234833 -148.96017418 237.11931063 -183.9609375 252.30078125 C-190.71789923 255.1818267 -195.73840941 256.79587724 -203 255 C-207.47999756 252.6770383 -209.7805637 250.4966036 -212 246 C-212.328125 243.02734375 -212.328125 243.02734375 -212.25 239.9375 C-212.23453125 238.91527344 -212.2190625 237.89304687 -212.203125 236.83984375 C-212.02965562 234.41460841 -211.69034302 232.32155678 -211 230 C-210.34 230 -209.68 230 -209 230 C-209 228.35 -209 226.7 -209 225 C-208.34 225 -207.68 225 -207 225 C-207 223.68 -207 222.36 -207 221 C-206.34 221 -205.68 221 -205 221 C-204.9175 219.72125 -204.835 218.4425 -204.75 217.125 C-204.16782347 211.65949199 -202.23611052 206.98184622 -200 202 C-199.34 202 -198.68 202 -198 202 C-198.12375 201.0409375 -198.12375 201.0409375 -198.25 200.0625 C-197.94150467 196.28343217 -196.60994071 193.56966234 -194.97265625 190.18359375 C-194.05621375 188.12619873 -193.47317091 186.19650915 -193 184 C-192.34 184 -191.68 184 -191 184 C-191 182.35 -191 180.7 -191 179 C-190.34 179 -189.68 179 -189 179 C-188.96261719 178.40832031 -188.92523438 177.81664062 -188.88671875 177.20703125 C-188.47752986 172.28874126 -187.78077106 169.17115659 -185 165 C-184.29329272 162.30745009 -184.29329272 162.30745009 -184 160 C-183.34 160 -182.68 160 -182 160 C-181.67 157.03 -181.34 154.06 -181 151 C-180.34 151 -179.68 151 -179 151 C-179 149.68 -179 148.36 -179 147 C-178.34 147 -177.68 147 -177 147 C-177 145.35 -177 143.7 -177 142 C-176.34 142 -175.68 142 -175 142 C-174.96261719 141.40832031 -174.92523438 140.81664062 -174.88671875 140.20703125 C-174.47752986 135.28874126 -173.78077106 132.17115659 -171 128 C-170.29329272 125.30745009 -170.29329272 125.30745009 -170 123 C-169.34 123 -168.68 123 -168 123 C-168 121.68 -168 120.36 -168 119 C-167.34 119 -166.68 119 -166 119 C-165.67 116.03 -165.34 113.06 -165 110 C-164.34 110 -163.68 110 -163 110 C-163 108.35 -163 106.7 -163 105 C-162.34 105 -161.68 105 -161 105 C-160.81630859 103.98873047 -160.81630859 103.98873047 -160.62890625 102.95703125 C-159.88946431 99.48027628 -158.92658815 96.10144942 -157.9375 92.6875 C-157.57527344 91.43324219 -157.21304688 90.17898438 -156.83984375 88.88671875 C-156.56269531 87.93410156 -156.28554687 86.98148438 -156 86 C-155.34 86 -154.68 86 -154 86 C-153.773125 84.783125 -153.54625 83.56625 -153.3125 82.3125 C-151.51584097 74.22116322 -148.21701468 66.56592957 -144.75 59.0625 C-143.22548842 55.73070452 -142.37684628 52.67425124 -142 49 C-141.34 49 -140.68 49 -140 49 C-139.34 46.03 -138.68 43.06 -138 40 C-137.34 40 -136.68 40 -136 40 C-135.94392578 39.11248047 -135.94392578 39.11248047 -135.88671875 38.20703125 C-135.47826083 33.29752725 -134.82816194 30.13346746 -132 26 C-131.4121875 24.2984375 -131.4121875 24.2984375 -130.8125 22.5625 C-127.84829627 16.73630645 -122.78734821 13.40486564 -116.65234375 11.27734375 C-115.08657617 10.81064378 -113.51446299 10.36484615 -111.9375 9.9375 C-111.07608398 9.69346436 -110.21466797 9.44942871 -109.32714844 9.19799805 C-91.09865254 4.15687382 -72.8061413 0.91899401 -54 -1 C-52.70707031 -1.13277344 -51.41414062 -1.26554688 -50.08203125 -1.40234375 C-33.28905097 -2.83949212 -16.69349819 -2.07348799 0 0 Z M-100 34 C-100.7213916 34.20834473 -101.4427832 34.41668945 -102.18603516 34.63134766 C-105.61414833 35.82546931 -106.83507175 36.66393653 -108.453125 39.9609375 C-108.71609375 41.08757813 -108.9790625 42.21421875 -109.25 43.375 C-110.33966218 47.84672686 -111.63399185 51.08091983 -114 55 C-114.77592925 57.31173406 -115.48124942 59.64802939 -116.125 62 C-116.45757812 63.19625 -116.79015625 64.3925 -117.1328125 65.625 C-117.84829489 68.40958012 -118.47555408 71.17441381 -119 74 C-119.66 74 -120.32 74 -121 74 C-121.38091797 75.19496094 -121.38091797 75.19496094 -121.76953125 76.4140625 C-124.67734966 85.36622254 -124.67734966 85.36622254 -126.75 89.4375 C-128.09989739 92.20478965 -128.26802878 93.96234053 -128 97 C-128.66 97 -129.32 97 -130 97 C-130.64894237 99.06152389 -131.2940264 101.12426258 -131.9375 103.1875 C-132.47697266 104.91033203 -132.47697266 104.91033203 -133.02734375 106.66796875 C-133.83756036 109.44353006 -134.49134307 112.15687548 -135 115 C-135.66 115 -136.32 115 -137 115 C-137.50757862 116.41396902 -138.00574925 117.83131729 -138.5 119.25 C-138.7784375 120.03890625 -139.056875 120.8278125 -139.34375 121.640625 C-140.17864861 124.23412738 -140.17864861 124.23412738 -140 128 C-140.66 128 -141.32 128 -142 128 C-142 129.65 -142 131.3 -142 133 C-142.66 133 -143.32 133 -144 133 C-144.50692692 134.5811292 -145.00526443 136.16501383 -145.5 137.75 C-145.7784375 138.63171875 -146.056875 139.5134375 -146.34375 140.421875 C-147.16445285 143.20267529 -147.16445285 143.20267529 -147 147 C-147.66 147 -148.32 147 -149 147 C-149 148.32 -149 149.64 -149 151 C-149.66 151 -150.32 151 -151 151 C-151 152.32 -151 153.64 -151 155 C-146.02639003 154.23171879 -141.4609272 152.4530365 -136.75 150.75 C-90.74068574 134.44617376 -40.45887876 126.69075597 8 135 C8.90572754 135.14985352 9.81145508 135.29970703 10.74462891 135.45410156 C42.8799571 140.84144436 75.42340057 152.49581869 101.26953125 172.78125 C102.91976519 174.19193779 102.91976519 174.19193779 105 174 C105 174.66 105 175.32 105 176 C106.48636758 177.3606009 106.48636758 177.3606009 108.375 178.625 C109.00148438 179.07101562 109.62796875 179.51703125 110.2734375 179.9765625 C111.95222643 181.16996969 111.95222643 181.16996969 114 181 C114 181.66 114 182.32 114 183 C115.62092592 184.60059293 115.62092592 184.60059293 117.6875 186.25 C120.35458674 188.49770384 122.67707892 190.67979363 124.8125 193.4375 C125.8953125 194.7059375 125.8953125 194.7059375 127 196 C127.99 196 128.98 196 130 196 C130 164.65 130 133.3 130 101 C129.34 101 128.68 101 128 101 C127 99 126 97 125 95 C124.34 95 123.68 95 123 95 C123 94.34 123 93.68 123 93 C122.34 93 121.68 93 121 93 C120.5978125 92.0409375 120.5978125 92.0409375 120.1875 91.0625 C119.11332248 88.66868314 119.11332248 88.66868314 116 88 C116 87.34 116 86.68 116 86 C115.34 86 114.68 86 114 86 C113.731875 85.401875 113.46375 84.80375 113.1875 84.1875 C112.00082594 82.00152146 110.90400887 80.58667406 109 79 C108.34 79 107.68 79 107 79 C107 78.34 107 77.68 107 77 C105.38304723 75.60679531 103.70361382 74.28578984 102 73 C100.54207031 71.84564453 100.54207031 71.84564453 99.0546875 70.66796875 C92.26974525 65.35403687 85.37609927 60.47675904 78 56 C77.2265625 55.51144531 76.453125 55.02289062 75.65625 54.51953125 C68.62669472 50.14949105 61.24571209 46.54117879 53.82128906 42.90332031 C51.48549687 41.74481748 49.183663 40.52397662 46.875 39.3125 C37.56680503 34.71225158 27.79402767 31.79465008 17.75 29.3125 C16.95424561 29.11011719 16.15849121 28.90773438 15.33862305 28.69921875 C0.24682695 25.13247226 -15.18532736 24.61823639 -30.625 24.6875 C-31.49673859 24.68965515 -32.36847717 24.6918103 -33.26663208 24.69403076 C-56.1696451 24.78450173 -77.94728646 27.56707042 -100 34 Z M276 28 C275.22350098 28.1556543 274.44700195 28.31130859 273.64697266 28.47167969 C254.82014096 32.39769121 236.56132679 40.31799357 220 50 C219.02675781 50.53882813 218.05351563 51.07765625 217.05078125 51.6328125 C205.97334555 57.85934499 195.80303769 65.35650018 185.98828125 73.40625 C184 75 184 75 181 77 C181 77.66 181 78.32 181 79 C180.34 79 179.68 79 179 79 C179 79.66 179 80.32 179 81 C178.34 81 177.68 81 177 81 C177 81.66 177 82.32 177 83 C176.46375 83.20625 175.9275 83.4125 175.375 83.625 C172.08021991 85.53250426 169.40636372 88.04819384 167 91 C167 91.66 167 92.32 167 93 C166.34 93 165.68 93 165 93 C165 93.66 165 94.32 165 95 C164.34 95 163.68 95 163 95 C158.11537787 100.4802509 157.28238654 104.31363365 157.43237305 111.51538086 C157.43164291 112.44299225 157.43091278 113.37060364 157.43016052 114.32632446 C157.43362641 117.37310554 157.47244056 120.41833184 157.51171875 123.46484375 C157.52105042 125.58475408 157.52816486 127.70467523 157.53315735 129.82460022 C157.55219912 135.38972015 157.60127619 140.95418206 157.65667725 146.51904297 C157.70793028 152.20335998 157.73068435 157.88778388 157.75585938 163.57226562 C157.80939718 174.71513201 157.89467625 185.85751117 158 197 C158.66 197 159.32 197 160 197 C160 196.34 160 195.68 160 195 C160.66 195 161.32 195 162 195 C163.68732277 193.01739574 165.35366057 191.0167658 167 189 C167.66 188.67 168.32 188.34 169 188 C169 187.34 169 186.68 169 186 C169.66 186 170.32 186 171 186 C172.66666667 184.66666667 172.66666667 184.66666667 174 183 C174 182.34 174 181.68 174 181 C174.556875 180.938125 175.11375 180.87625 175.6875 180.8125 C178.22538076 180.10818277 178.22538076 180.10818277 180.3125 177.6875 C183.36709837 174.63290163 186.20184457 173.01078817 190 171 C190 170.34 190 169.68 190 169 C190.71542969 168.73445312 191.43085937 168.46890625 192.16796875 168.1953125 C195.07306917 166.96915977 197.61955218 165.51286077 200.3125 163.875 C211.40761107 157.32438092 222.97680342 151.64136574 235 147 C236.05058594 146.59136719 237.10117187 146.18273437 238.18359375 145.76171875 C276.90647918 131.30219043 318.36988536 129.30168876 359 135 C360.03398926 135.14453613 361.06797852 135.28907227 362.13330078 135.43798828 C382.11233169 138.31856706 401.44916754 143.11208976 420.6875 149.1875 C421.74509521 149.52040039 422.80269043 149.85330078 423.89233398 150.19628906 C424.88048096 150.51694336 425.86862793 150.83759766 426.88671875 151.16796875 C428.18935669 151.58985474 428.18935669 151.58985474 429.51831055 152.02026367 C432.21313342 153.0841421 434.52150775 154.51048994 437 156 C437.66 156 438.32 156 439 156 C439 154.35 439 152.7 439 151 C438.34 151 437.68 151 437 151 C436.87753906 150.47921875 436.75507812 149.9584375 436.62890625 149.421875 C435.82683683 146.33316046 434.8823707 143.29797002 433.9375 140.25 C433.57527344 139.07953125 433.21304687 137.9090625 432.83984375 136.703125 C432.42412109 135.36507812 432.42412109 135.36507812 432 134 C431.34 134 430.68 134 430 134 C429.87753906 133.31550781 429.75507812 132.63101563 429.62890625 131.92578125 C428.91575403 128.60807311 427.95146135 125.42563463 426.9375 122.1875 C426.57527344 121.02605469 426.21304687 119.86460937 425.83984375 118.66796875 C425.42412109 117.34732422 425.42412109 117.34732422 425 116 C424.34 116 423.68 116 423 116 C422.896875 115.360625 422.79375 114.72125 422.6875 114.0625 C421.7601593 109.93161871 420.37240331 106.00123217 419 102 C418.43596893 100.31301113 417.87340476 98.62553091 417.3125 96.9375 C417.06113281 96.18339844 416.80976562 95.42929687 416.55078125 94.65234375 C416.27814453 93.83443359 416.27814453 93.83443359 416 93 C415.34 93 414.68 93 414 93 C413.87625 92.360625 413.7525 91.72125 413.625 91.0625 C412.8020178 87.02988724 411.90114025 83.01576093 411 79 C410.34 79 409.68 79 409 79 C408.88398437 78.30390625 408.76796875 77.6078125 408.6484375 76.890625 C407.92853284 73.68141146 406.84247231 70.8047487 405.625 67.75 C403.58090374 62.54199823 401.71472813 57.32468208 400 52 C399.34 52 398.68 52 398 52 C397.87625 50.989375 397.7525 49.97875 397.625 48.9375 C397.01914665 45.12062388 396.12806088 41.68499888 395 38 C394.34 38 393.68 38 393 38 C393 37.34 393 36.68 393 36 C357.20268115 23.28211389 313.30505625 20.23556911 276 28 Z M-82 162 C-82.94697754 162.17692383 -83.89395508 162.35384766 -84.86962891 162.53613281 C-103.9682399 166.1814586 -122.22239238 171.9431606 -140.55551147 178.318573 C-142.08975265 178.85198953 -143.62475753 179.383215 -145.16055298 179.91213989 C-147.33690427 180.6641084 -149.50873242 181.42792313 -151.6796875 182.1953125 C-152.32893692 182.41812393 -152.97818634 182.64093536 -153.64710999 182.87049866 C-157.87834469 184.38595693 -161.50862239 186.15097687 -165 189 C-165 190.32 -165 191.64 -165 193 C-165.66 193 -166.32 193 -167 193 C-169.64472478 199.28275689 -169.64472478 199.28275689 -170 206 C-170.66 206 -171.32 206 -172 206 C-172 207.65 -172 209.3 -172 211 C-172.66 211 -173.32 211 -174 211 C-174 212.65 -174 214.3 -174 216 C-174.66 216 -175.32 216 -176 216 C-176 216.99 -176 217.98 -176 219 C-172.24039325 218.60425192 -169.0293238 217.68534608 -165.5625 216.25 C-150.17086056 209.93490088 -134.12410699 205.9737475 -118 202 C-116.95779297 201.7407373 -115.91558594 201.48147461 -114.84179688 201.21435547 C-106.2111165 199.13664844 -97.52580156 197.66348014 -88.75 196.375 C-88.01110535 196.26572174 -87.27221069 196.15644348 -86.51092529 196.04385376 C-73.0077086 194.0717694 -59.65255366 193.10900726 -46 193 C-44.27603998 192.97276271 -42.55208159 192.94542239 -40.828125 192.91796875 C-35.88322282 192.85989023 -30.94427728 192.91863242 -26 193 C-25.13294434 193.00725098 -24.26588867 193.01450195 -23.37255859 193.02197266 C19.43572317 193.47795544 60.43355258 206.56527474 96.41796875 229.49609375 C98.79002361 231.16776732 98.79002361 231.16776732 101 231 C101 231.66 101 232.32 101 233 C103.96187272 235.17204 106.50685991 236.83561997 110 238 C110 238.66 110 239.32 110 240 C111.48426233 241.58191818 111.48426233 241.58191818 113.375 243.125 C114.00148438 243.66382813 114.62796875 244.20265625 115.2734375 244.7578125 C116.91608428 246.19467147 116.91608428 246.19467147 119 246 C119 246.66 119 247.32 119 248 C121.95664519 249.4783226 124.74229737 249.06032783 128 249 C127.24029922 245.64132288 126.12906745 242.47876342 124.9375 239.25 C124.57527344 238.26515625 124.21304687 237.2803125 123.83984375 236.265625 C123.56269531 235.51796875 123.28554688 234.7703125 123 234 C122.34 234 121.68 234 121 234 C120.87625 233.4225 120.7525 232.845 120.625 232.25 C119.99351176 229.97664233 119.11141809 228.0746471 118 226 C117.34 226 116.68 226 116 226 C116 225.01 116 224.02 116 223 C115.34 223 114.68 223 114 223 C113.773125 222.484375 113.54625 221.96875 113.3125 221.4375 C110.87178716 216.90474758 107.89091955 212.41363342 104 209 C103.34 209 102.68 209 102 209 C102 208.34 102 207.68 102 207 C100.61986159 205.6362024 100.61986159 205.6362024 98.7734375 204.27734375 C98.07798828 203.74302734 97.38253906 203.20871094 96.66601562 202.65820312 C95.53196289 201.80645508 95.53196289 201.80645508 94.375 200.9375 C93.22161133 200.06448242 93.22161133 200.06448242 92.04492188 199.17382812 C69.68470468 182.42674555 44.50604994 169.74068009 17.25 163.3125 C15.98373779 163.00844238 15.98373779 163.00844238 14.69189453 162.69824219 C-1.60004312 159.0521108 -18.00324732 158.62533937 -34.625 158.6875 C-36.14469894 158.69023422 -36.14469894 158.69023422 -37.69509888 158.69302368 C-52.66395292 158.73834761 -67.26116612 159.15513268 -82 162 Z M267.5 164.1875 C266.65091064 164.3939917 265.80182129 164.6004834 264.92700195 164.81323242 C237.57373213 171.80169759 212.89036818 185.40125548 191 203 C190.05511719 203.71414063 189.11023438 204.42828125 188.13671875 205.1640625 C187.43160156 205.76992188 186.72648437 206.37578125 186 207 C186 207.66 186 208.32 186 209 C185.34 209 184.68 209 184 209 C182.33333333 210.33333333 182.33333333 210.33333333 181 212 C181 212.66 181 213.32 181 214 C180.34 214 179.68 214 179 214 C177.18371224 215.94375954 177.18371224 215.94375954 175.375 218.375 C174.74335937 219.18710937 174.11171875 219.99921875 173.4609375 220.8359375 C171.81349192 222.84109879 171.81349192 222.84109879 172 225 C171.34 225 170.68 225 170 225 C167.95830515 227.90548882 167 229.40142046 167 233 C166.34 233 165.68 233 165 233 C164.17988688 234.55851755 163.36923787 236.12201716 162.5625 237.6875 C161.88380859 238.99267578 161.88380859 238.99267578 161.19140625 240.32421875 C160.03309638 242.92566878 159.3507968 245.17880317 159 248 C160.15568119 249.37768644 160.15568119 249.37768644 163.3125 249.1875 C167.53118068 249.01135892 167.53118068 249.01135892 171 247 C171.721875 246.09121094 172.44375 245.18242188 173.1875 244.24609375 C176.02836029 240.79566453 179.25092776 238.27368349 182.875 235.6875 C183.52919922 235.21602539 184.18339844 234.74455078 184.85742188 234.25878906 C196.29351076 226.13314696 208.21712354 219.71793184 221 214 C223.25049237 212.93854328 225.5005136 211.87608695 227.75 210.8125 C250.7755839 200.25210446 277.54153573 194.45876132 302.8125 193.4375 C303.8329541 193.3957666 304.8534082 193.3540332 305.90478516 193.31103516 C314.13260549 192.99581765 322.34072425 192.81319745 330.57373047 192.95849609 C332.26274349 192.98738845 333.95191162 193.0079194 335.64111328 193.02197266 C374.79009407 193.4247259 423.22737754 199.74291861 458.12255859 218.11767578 C460.10677941 219.21266611 460.10677941 219.21266611 463 219 C462.67 217.02 462.34 215.04 462 213 C461.34 213 460.68 213 460 213 C460.0825 212.360625 460.165 211.72125 460.25 211.0625 C459.9404679 207.27073183 458.56834024 204.57066539 456.95703125 201.16015625 C455.91144677 198.8001227 455.33025991 196.55951434 455 194 C454.34 194 453.68 194 453 194 C452.896875 193.236875 452.79375 192.47375 452.6875 191.6875 C451.91979618 188.68647599 451.3280031 187.94560371 449 186 C445.63492606 184.33331202 442.08367837 183.11177184 438.5625 181.8125 C436.99036743 181.22637939 436.99036743 181.22637939 435.38647461 180.62841797 C423.75677096 176.39337789 411.87691427 173.11476076 399.94775391 169.84643555 C397.33550269 169.09633823 394.78019319 168.26601516 392.21484375 167.37109375 C388.02784186 165.93735266 383.86517871 165.12183692 379.5 164.4375 C375.22572588 163.74362433 370.99165953 163.01797616 366.77587891 162.02246094 C352.74100181 158.88363812 338.24251276 158.65053222 323.92138672 158.68432617 C321.13339183 158.68749048 318.34645925 158.6638826 315.55859375 158.63867188 C299.33186772 158.58157566 283.28403608 160.31284815 267.5 164.1875 Z " fill="#0D0D0D" transform="translate(368,560)"/>
<path d="M0 0 C0.66 0.33 1.32 0.66 2 1 C1.29230469 1.70511719 0.58460938 2.41023437 -0.14453125 3.13671875 C-2.05180997 5.0426529 -3.94314768 6.96274343 -5.82421875 8.89453125 C-6.7786209 9.86721196 -7.73304812 10.83986808 -8.6875 11.8125 C-9.41549805 12.56563477 -9.41549805 12.56563477 -10.15820312 13.33398438 C-11.40124606 14.59417273 -12.69699892 15.80191044 -14 17 C-14.66 17 -15.32 17 -16 17 C-15.505 15.515 -15.505 15.515 -15 14 C-14.34 14 -13.68 14 -13 14 C-12.67 13.01 -12.34 12.02 -12 11 C-11.34 11 -10.68 11 -10 11 C-9.75507813 10.41734375 -9.51015625 9.8346875 -9.2578125 9.234375 C-7.79564126 6.63697764 -6.15259586 5.16024169 -3.875 3.25 C-3.15054687 2.63640625 -2.42609375 2.0228125 -1.6796875 1.390625 C-0.84824219 0.70226562 -0.84824219 0.70226562 0 0 Z " fill="#A1A1A1" transform="translate(271,192)"/>
<path d="M0 0 C0.66 0.33 1.32 0.66 2 1 C-0.76266748 3.82062242 -3.53646053 6.63004214 -6.3125 9.4375 C-7.09818359 10.23994141 -7.88386719 11.04238281 -8.69335938 11.86914062 C-9.45068359 12.63291016 -10.20800781 13.39667969 -10.98828125 14.18359375 C-11.68477783 14.89056396 -12.38127441 15.59753418 -13.09887695 16.32592773 C-15 18 -15 18 -18 19 C-17.34 17.68 -16.68 16.36 -16 15 C-15.34 15 -14.68 15 -14 15 C-14 14.34 -14 13.68 -14 13 C-13.34 13 -12.68 13 -12 13 C-12 12.34 -12 11.68 -12 11 C-10.390625 9.4140625 -10.390625 9.4140625 -8.25 7.625 C-5.3756268 5.18382134 -2.61456008 2.72350008 0 0 Z " fill="#AAAAAA" transform="translate(535,614)"/>
<path d="M0 0 C0.66 0 1.32 0 2 0 C1.41347648 4.48993869 0.2356462 8.22543184 -1.5625 12.375 C-2.01753906 13.43460938 -2.47257813 14.49421875 -2.94140625 15.5859375 C-3.29074219 16.38257813 -3.64007813 17.17921875 -4 18 C-5.04865757 14.83291337 -4.98358535 13.18400714 -3.6875 10.125 C-3.40648437 9.43664062 -3.12546875 8.74828125 -2.8359375 8.0390625 C-2.56007812 7.36617187 -2.28421875 6.69328125 -2 6 C-1.32264783 4.00359361 -0.65161065 2.00495586 0 0 Z " fill="#F2F2F2" transform="translate(198,683)"/>
<path d="M0 0 C0.66 0 1.32 0 2 0 C0.23536928 6.10737442 -1.69557475 12.07433507 -4 18 C-4.33 18 -4.66 18 -5 18 C-4.51030705 11.38914524 -2.66557258 6.05022986 0 0 Z " fill="#F2F2F2" transform="translate(168,762)"/>
<path d="M0 0 C1.23593891 3.70781672 0.5678132 4.67510253 -0.9375 8.1875 C-1.31777344 9.08855469 -1.69804687 9.98960937 -2.08984375 10.91796875 C-2.54037109 11.94857422 -2.54037109 11.94857422 -3 13 C-4.15019009 9.54942972 -3.80497206 8.69840756 -2.625 5.375 C-2.34914062 4.57835937 -2.07328125 3.78171875 -1.7890625 2.9609375 C-1 1 -1 1 0 0 Z " fill="#F3F3F3" transform="translate(236,586)"/>
</svg>
