<?xml version="1.0" encoding="utf-8"?>
<!-- Generator: Adobe Illustrator 26.2.1, SVG Export Plug-In . SVG Version: 6.00 Build 0)  -->
<svg version="1.1" id="Layer_1" xmlns="http://www.w3.org/2000/svg" xmlns:xlink="http://www.w3.org/1999/xlink" x="0px" y="0px"
	 viewBox="0 0 1829.83 3554.88" style="enable-background:new 0 0 1829.83 3554.88;" xml:space="preserve">
<style type="text/css">
	.st0{fill:#DDAC7A;}
	.st1{fill:#512717;}
	.st2{fill:#8E8FB3;}
	.st3{fill:#6C709E;}
	.st4{fill:#FFFFFF;}
	.st5{fill:#000072;}
	.st6{fill:#E8E8E8;}
	.st7{fill:#FCC06A;}
	.st8{opacity:0.5;}
	.st9{opacity:0.2;}
	.st10{fill:#FAD1A3;}
	.st11{opacity:0.3;}
	.st12{fill:#6B184E;}
	.st13{fill:#A16044;}
	.st14{opacity:0.25;}
	.st15{opacity:0.35;}
	.st16{fill:#F27E80;}
	.st17{opacity:0.7;}
	.st18{fill:#D3D4E2;}
	.st19{fill:#686868;}
	.st20{fill:#FF5C64;}
	.st21{fill:#9E9E9E;}
	.st22{fill:#371A45;}
	.st23{fill:#D8D8D8;}
	.st24{fill:none;stroke:#FFFFFF;stroke-width:35.6757;stroke-linecap:round;stroke-miterlimit:10;}
	.st25{fill:#22A7F0;}
	.st26{opacity:0.8;}
	.st27{fill:#0A7AE0;}
	.st28{fill:#F78631;}
	.st29{fill:#995834;}
	.st30{fill:#723517;}
	.st31{fill:#FFB140;}
	.st32{opacity:0.4;}
	.st33{fill:#DD4040;}
	.st34{fill:#BC2E2E;}
	.st35{fill:#49C437;}
	.st36{fill:#31A319;}
	.st37{fill:#FCA054;}
	.st38{fill:#FFF1B6;}
	.st39{fill:#E2D28D;}
	.st40{fill:#220F2D;}
	.st41{fill:#EA2D2D;}
	.st42{fill:#C92020;}
	.st43{fill:#E88B46;}
	.st44{fill:#1675DB;}
	.st45{fill:#111A28;}
	.st46{fill:#7C7C7C;}
	.st47{fill:#FC7E81;}
	.st48{fill:#1D1D1D;}
	.st49{fill:#4AC3FF;}
	.st50{fill:#2890E5;}
	.st51{fill:#3BB4FF;}
	.st52{fill:#390075;}
	.st53{fill:#39D5FF;}
	.st54{fill:#FEF26B;}
	.st55{fill:#FFC55F;}
	.st56{fill:#F948C3;}
	.st57{fill:#FD6CCB;}
	.st58{fill:#102770;}
	.st59{opacity:0.6;}
	.st60{fill:#E8D7FF;}
	.st61{fill:#FDC1E5;}
	.st62{fill:#F792D3;}
	.st63{fill:#FDD800;}
	.st64{fill:#EFA500;}
	.st65{fill:#FFEBF6;}
	.st66{fill:#FFC5F4;}
	.st67{fill:#F7B0DE;}
	.st68{fill:#BEE2EA;}
	.st69{fill:#371944;}
	.st70{fill:#3EA2DA;}
	.st71{fill:#3A77BB;}
	.st72{fill:#101928;}
	.st73{fill:#D3D3D3;}
	.st74{fill:#AFAFAF;}
	.st75{fill:#BD89E5;}
	.st76{fill:#99D4D9;}
	.st77{fill:#FFB200;}
	.st78{fill:#78C7CF;}
	.st79{fill:#C1A1DF;}
	.st80{fill:#69A5B4;}
	.st81{fill:#BD8AE4;}
	.st82{fill:#6CBCC3;}
	.st83{fill:#7552A5;}
	.st84{fill:#88D5DF;}
	.st85{fill:#FEB100;}
	.st86{fill:#5896A3;}
	.st87{fill:#BCA763;}
	.st88{fill:#955DC6;}
	.st89{fill:#FCDD77;}
	.st90{fill:#83D1DA;}
	.st91{fill:#965EC7;}
	.st92{fill:#955CC6;}
	.st93{fill:#F3C967;}
	.st94{fill:#D86E09;}
	.st95{fill:#BC6316;}
	.st96{fill:#87D4DE;}
	.st97{fill:#7E63AA;}
	.st98{fill:#D1B4EB;}
	.st99{fill:#E5E9EC;}
	.st100{fill:#E6F3F5;}
	.st101{fill:#CBD2D9;}
	.st102{fill:#A8B6C1;}
	.st103{fill:#ABB3BE;}
	.st104{fill:#C6DAE0;}
	.st105{fill:#878FA0;}
	.st106{fill:#9A9BAA;}
	.st107{fill:#62ED2E;}
	.st108{fill:#31C418;}
	.st109{fill:none;stroke:#FFFFFF;stroke-width:34.3992;stroke-linecap:round;stroke-miterlimit:10;}
	.st110{fill:#1C7AEA;}
	.st111{fill:none;stroke:#FFFFFF;stroke-width:34.5958;stroke-linecap:round;stroke-miterlimit:10;}
	.st112{fill:#FFD243;}
	.st113{fill:#FCAC38;}
	.st114{fill:#FF6845;}
	.st115{fill:#E84B31;}
	.st116{fill:#3A3A3A;}
	.st117{fill:#FF9C31;}
	.st118{fill:#FF6D33;}
	.st119{fill:#FFEDD9;}
	.st120{fill:#F9D0A7;}
	.st121{fill:#FF0068;}
	.st122{fill:#F2A0D5;}
	.st123{fill:#FF9C4A;}
	.st124{fill:#FF7640;}
	.st125{opacity:0.5;fill:url(#SVGID_1_);}
	.st126{opacity:0.5;fill:url(#SVGID_00000173853187662786825860000016575584575936142998_);}
	.st127{fill:#63C9FC;}
	.st128{fill:#2E97FF;}
	.st129{fill:#FFF6F0;}
	.st130{fill:#D8D3D0;}
</style>
<g>
	<g>
		<g>
			<g>
				<path class="st2" d="M1165.45,3367.96c188.69,108.08,367.87,9.41,395.04-140.01c5.33-29.35,4.76-60.67-2.72-92.73
					c-4.38-18.82-11.18-37.87-20.58-57.03c-8.29-16.92-16.78-33.87-25.03-50.85c-28.84-59.27-54.65-118.41-59.21-173.61
					c-2.17-26.19,0.44-51.53,9.85-75.54c4.99-12.67,13.04-23.61,22.93-32.3c11.72-10.29,26.02-17.46,40.76-20.58
					c6.59-1.39,13.25-2,19.84-1.7c42.49,1.8,81.05,40.25,65.49,136.11c-21.81,134.68,124.63,176.8,178.43,61.31
					c2.38-5.13,4.52-10.53,6.52-16.17c0.65-1.97,1.32-3.97,1.97-5.98c33.59-107.54-7.1-293.75-173.23-332.78
					c-7.61-1.83-15.52-3.3-23.71-4.45c-11.21-1.56-22.25-2.51-33.05-2.79c-20.04-0.54-39.37,1.09-57.74,4.69
					c-134.95,26.43-219.91,159.27-177.34,325.92c22.86,89.44,115.35,258.09,76.19,339.54c-12.4,25.82-50.44,45.86-95.52,43.75
					c-1.16-0.03-2.34-0.1-3.53-0.17h-0.03c-32.51-2.34-68.41-16.27-100.71-47.79L1165.45,3367.96z"/>
			</g>
			<g>
				<path class="st3" d="M1165.47,3367.97c188.68,108.08,367.89,9.39,395.04-140.02c-22.8,75.43-146.12,124.19-246.15,44.79
					c-1.16-0.03-2.35-0.09-3.53-0.18h-0.03c-32.51-2.35-68.41-16.27-100.71-47.78L1165.47,3367.97z"/>
			</g>
			<g>
				<path class="st3" d="M1403.62,2808.36c8.29,100.34,77.4,185.36,108.54,218.97c-28.83-59.27-54.64-118.41-59.21-173.6
					c-2.16-26.21,0.46-51.53,9.87-75.54c4.97-12.68,13.01-23.62,22.91-32.3c16.94-14.93,39.28-23.25,60.61-22.31
					c42.48,1.8,81.02,40.25,65.48,136.12c-21.82,134.69,124.63,176.8,178.41,61.31c2.38-5.12,4.54-10.54,6.52-16.18
					c-27.06,20.32-94.7,55.22-132.19,13.53c-52.75-58.66,19.11-156.58-50.19-228.72C1561.6,2634.69,1392.86,2678.25,1403.62,2808.36
					z"/>
			</g>
			<g>
				<path class="st19" d="M1509.61,2676.11c1.32,1.39,18.44-3.06,17.97-1.19c-2,8.19-5.71,24.73-1.09,50.37
					c0.1-0.03,0.17-0.03,0.27-0.03c1.29-0.31,2.55-0.54,3.84-0.71c1.12-0.2,2.24-0.34,3.36-0.48c0.88-0.1,1.8-0.2,2.72-0.27
					c0.82-0.07,1.66-0.14,2.51-0.17c2.38-0.14,4.76-0.14,7.13-0.03c42.49,1.8,81.05,40.25,65.49,136.11
					c-21.81,134.68,124.63,176.8,178.43,61.31c2.38-5.13,4.52-10.53,6.52-16.17c-27.07,20.31-94.7,55.2-132.2,13.52
					c-52.75-58.66,19.12-156.59-50.17-228.74c-22.04-22.93-64.23-28.7-105.16-18.21C1508.7,2673.56,1508.73,2675.2,1509.61,2676.11z
					"/>
			</g>
			<g>
				<path class="st4" d="M1526.5,2725.3c6.59-1.39,13.25-2,19.84-1.7c42.49,1.8,81.05,40.25,65.49,136.11
					c-21.81,134.68,124.63,176.8,178.43,61.31c2.38-5.13,4.52-10.53,6.52-16.17c0.65-1.97,1.32-3.97,1.97-5.98
					c33.59-107.54-7.1-293.75-173.23-332.78c-7.61-1.83-15.52-3.3-23.71-4.45c-11.21-1.56-22.25-2.51-33.05-2.79
					c-10.95,6.85-38.36,33.55-45.95,61.52c-0.94,3.46,16.56-3.28,15.19,0.4c-4.61,12.37-34.07,49.35-28.37,55.35
					c1.31,1.38,18.44-3.06,17.98-1.2C1525.59,2683.12,1521.87,2699.64,1526.5,2725.3z"/>
			</g>
			<g>
				<path class="st18" d="M1509.61,2676.11c1.32,1.39,18.44-3.06,17.97-1.19c-2,8.19-5.71,24.73-1.09,50.37
					c0.1-0.03,0.17-0.03,0.27-0.03c1.29-0.27,2.55-0.51,3.84-0.71c1.12-0.2,2.24-0.34,3.36-0.48c0.88-0.1,1.8-0.2,2.72-0.27
					c0.85-0.07,1.7-0.14,2.51-0.17c2.38-0.14,4.76-0.14,7.13-0.03c42.49,1.8,81.05,40.25,65.49,136.11
					c-21.81,134.68,124.63,176.8,178.43,61.31c2.38-5.13,4.52-10.53,6.52-16.17c-27.07,20.31-94.7,55.2-132.2,13.52
					c-52.75-58.66,19.12-156.59-50.17-228.74c-22.04-22.93-64.23-28.7-105.16-18.21C1508.7,2673.56,1508.73,2675.2,1509.61,2676.11z
					"/>
			</g>
			<g>
				<path class="st5" d="M1326.6,3429.56c-55.43,0-113.72-15.72-169.2-47.52c-7.78-4.46-10.47-14.38-6.01-22.16
					c4.46-7.78,14.38-10.47,22.16-6.01c110.02,63.05,231.49,56.53,309.45-16.63c69-64.75,84.19-161.25,39.65-251.87
					c-3.12-6.35-6.27-12.71-9.42-19.08c-49.58-100.19-100.83-203.78-65.54-294.01c18.08-46.19,72.26-74.57,118.3-61.99
					c19.43,5.31,81.32,31.97,61.87,152.04c-10.38,64.04,20.65,97.44,50.38,106.57c31.26,9.6,73.46-3.59,97.29-54.75
					c24.64-52.92,27.35-147.42-15.15-225.65c-23.65-43.54-70.76-98.1-160.85-110.77c-80.52-11.33-154.71,13.46-203.54,68
					c-53.31,59.55-70.29,146.92-46.59,239.72c6.31,24.69,18.52,56.68,31.45,90.55c34.99,91.68,74.65,195.59,43.67,260.01
					c-12.04,25.04-41.78,44.53-77.6,50.86c-51.9,9.17-105.88-9.22-148.18-50.44c-6.43-6.26-6.56-16.54-0.29-22.96
					c6.25-6.43,16.55-6.55,22.96-0.3c34.73,33.84,78.42,49.05,119.85,41.73c25.33-4.48,46.52-17.42,53.99-32.96
					c24.92-51.83-13.71-153.04-44.74-234.36c-13.27-34.77-25.81-67.6-32.57-94.1c-26.43-103.47-6.8-201.67,53.86-269.42
					c56.18-62.74,140.83-91.39,232.26-78.5c103.49,14.56,157.65,77.33,184.87,127.43c42.71,78.63,49.31,183.43,16.05,254.86
					c-32.08,68.87-91.55,85.83-136.27,72.08c-45.53-13.99-85.73-63.58-72.9-142.81c10.21-62.98-4.14-106.17-38.36-115.52
					c-30.27-8.28-67.4,11.59-79.5,42.5c-30.07,76.86,17.95,173.91,64.4,267.77c3.16,6.4,6.33,12.78,9.46,19.16
					c50.3,102.34,32.02,216.13-46.58,289.88C1456.69,3406.47,1393.75,3429.56,1326.6,3429.56z"/>
			</g>
			<g>
				<path class="st2" d="M647.43,3461.35c-25.74-2.31-49.85-3.94-72.26-5.03c-125.73-5.97-197.99,5.32-197.99,5.32
					s-11.94-22.53-21.07-61.06c-6.21-25.9-11.12-59.07-10.35-97.43c0.61-30.04,4.75-63.25,14.49-98.77
					c44.7-162.39,176.8-116.67,197.83-84.52c13.64,20.79,47.01,157.51,68.89,251.49C638.9,3422.75,647.43,3461.35,647.43,3461.35z"
					/>
			</g>
			<g>
				<path class="st3" d="M575.17,3456.32c-125.73-5.97-197.99,5.32-197.99,5.32s-11.94-22.53-21.07-61.06
					c-6.21-25.9-11.12-59.07-10.35-97.43c20.3-5.24,40.19-8.73,54.12-7.39c54.68,5.24,44.29-105.47,79.04-128.24
					C512.81,3145.31,553.81,3339.24,575.17,3456.32z"/>
			</g>
			<g>
				<path class="st18" d="M647.43,3461.35c-169.89-15.39-270.25,0.28-270.25,0.28s-11.94-22.53-21.07-61.06l67.11-99.58
					c0,0,38.97,150.69,191.57,75.47c4.26-2.11,8.32-3.82,12.18-5.12C638.9,3422.75,647.43,3461.35,647.43,3461.35z"/>
			</g>
			<g>
				<path class="st5" d="M668.06,3479.51l-22.1-2c-165.55-14.97-265.28,0.01-266.27,0.17l-11.43,1.77l-5.42-10.22
					c-2.48-4.69-60.23-116.53-18.24-269.13c25.68-93.34,77.69-120.25,116.8-126.39c46.6-7.34,94.62,13.36,110.27,37.26
					c21.58,32.96,80.09,294.74,91.6,346.88L668.06,3479.51z M481.08,3104.65c-4.79,0-9.69,0.35-14.64,1.13
					c-42.53,6.67-73.83,42.27-90.53,102.92c-31.56,114.71-1.08,205.82,11.12,235.28c30.17-3.46,114.03-10.49,239.75-0.68
					c-26.72-119.28-68.96-294.22-82.27-314.56C538.36,3119.36,512.04,3104.65,481.08,3104.65z"/>
			</g>
			<g>
				<path class="st2" d="M1291.69,3389.38c-21.84,88.38-100.76,102.63-201.28,97.19c-41.73-2.27-87.16-7.92-133.8-13.11
					c-48.51-5.4-98.28-10.27-146.59-10.27c-157.07,0-241.99,5.32-300.01-61.46c-32.84-37.84-43.84-90.29-43.88-149.03
					c0-22.73,2.84-46.56,7.51-70.8c16.4-85.01,55.25-174.4,71.86-234.24c22.57-81.4,38.44-147.93,48.8-211.99
					c2.11-12.75,3.94-25.37,5.56-38c2.96-22.53,5.24-45.1,6.9-68.2c6.5-91.34,515.69-3.65,515.69-3.65s7.96,13.19,20.62,36.86
					c6.49,12.14,14.25,27.08,22.77,44.37C1234.41,2846,1353.8,3138.61,1291.69,3389.38z"/>
			</g>
			<g>
				<path class="st3" d="M1165.84,2707.03c-72.55,40.35-188.25,66.46-318.56,66.46c-96.13,0-184.27-14.21-252.99-37.84
					c2.11-12.75,3.94-25.37,5.56-38c2.96-22.53,5.24-45.1,6.9-68.2c6.5-91.34,515.69-3.65,515.69-3.65s7.96,13.19,20.62,36.86
					C1149.56,2674.8,1157.32,2689.74,1165.84,2707.03z"/>
			</g>
			<g>
				<path class="st46" d="M852.24,2564.46l-193.73,189.22c-25.49-5.72-49.32-12.58-71.08-20.42c3.37-11.2,6.58-22.81,9.58-34.83
					c9.78-39.05,17.42-82.74,21.6-133.97H852.24z"/>
			</g>
			<g>
				<path class="st6" d="M852.24,2564.46l-193.73,189.22c-6.45-1.46-12.75-2.96-18.96-4.55c-12.18-14.13-26.22-32.03-42.54-50.7
					c9.78-39.05,17.42-82.74,21.6-133.97H852.24z"/>
			</g>
			<g>
				<path class="st6" d="M1143.07,2662.66c-50.83,39.05-98.89,45.22-139.37,97.51c-47.98,8.57-100.88,13.32-156.42,13.32
					c-86.83,0-167.13-11.61-232.53-31.26c-4.26-16.52-9.46-31.42-14.9-44.57c2.96-22.53,5.24-45.1,6.9-68.2
					c6.5-91.34,515.69-3.65,515.69-3.65S1130.4,2639,1143.07,2662.66z"/>
			</g>
			<g>
				<path class="st4" d="M985.8,2856.63c11.81,151.87,120.57,408.93,37.51,552.03c-16.12,27.81-39.13,49.08-66.7,64.79
					c-48.51-5.4-98.28-10.27-146.59-10.27c-157.07,0-241.99,5.32-300.01-61.46c-32.84-37.84-43.84-90.29-43.88-149.03
					c0-22.73,2.84-46.56,7.51-70.8c33.49-99.5,98.32-200.14,131.25-272.48c11.65-25.54,19.28-47.58,20.18-64.75
					c3.04-60.37-10.07-110.42-25.21-147c2.96-22.53,5.24-45.1,6.9-68.2c6.5-91.34,515.69-3.65,515.69-3.65s7.96,13.19,20.62,36.86
					c-51.23,39.34-99.62,45.31-140.34,98.73C986.41,2782.79,982.63,2815.91,985.8,2856.63z"/>
			</g>
			<g>
				<path class="st18" d="M1143.07,2662.66c-50.83,39.05-98.89,45.22-139.37,97.51c-47.98,8.57-100.88,13.32-156.42,13.32
					c-86.83,0-167.13-11.61-232.53-31.26c-4.26-16.52-9.46-31.42-14.9-44.57c2.96-22.53,5.24-45.1,6.9-68.2
					c6.5-91.34,515.69-3.65,515.69-3.65S1130.4,2639,1143.07,2662.66z"/>
			</g>
			<g>
				<path class="st18" d="M1023.31,3408.66c-16.12,27.81-39.13,49.08-66.7,64.79c-48.51-5.4-98.28-10.27-146.59-10.27
					c-157.07,0-241.99,5.32-300.01-61.46c-32.84-37.84-43.84-90.29-43.88-149.03c0-22.73,2.84-46.56,7.51-70.8
					c33.49-99.5,98.32-200.14,131.25-272.48c7.79,4.42,13.36,16.52,14.37,41.49c3.9,95.32,98.61,251.44,130.44,250.52
					c28.43-0.83,39.42-47.78,75.35-93.33c57.36-72.63,122.11-132.26,160.76-251.45C997.61,3008.5,1106.37,3265.56,1023.31,3408.66z"
					/>
			</g>
			<g>
				<path class="st5" d="M1125.9,3503.85c-12.1,0-24.27-0.42-36.36-1.07c-35.01-1.91-71.81-6.08-110.76-10.5
					c-55.74-6.32-113.38-12.86-168.76-12.86c-11.13,0-21.89,0.02-32.31,0.05c-137.97,0.33-221.19,0.55-279.95-67.12
					c-32.17-37.07-47.83-89.29-47.87-159.66c-0.02-76.29,30.77-164.36,55.52-235.12c9.54-27.28,18.55-53.04,24.43-74.27
					c37.51-135.31,53.96-220.68,60.7-314.98c0.59-8.23,4.05-20.21,17.23-30.53c78.44-61.44,472.72,4.33,517.42,12.03
					c4.64,0.8,8.71,3.57,11.14,7.61c2.63,4.36,64.99,108.32,117.85,256.21c49.04,137.19,98.09,338.71,53.28,519.64
					C1284.75,3485.08,1207.05,3503.85,1125.9,3503.85z M810.01,3446.94c57.22,0,115.79,6.65,172.42,13.07
					c38.47,4.37,74.81,8.49,108.87,10.34c116.18,6.3,167.96-17.5,184.64-84.87l0,0c76.67-309.57-132.96-691.3-163.72-744.93
					c-164.21-27.74-434.66-56.16-484.42-17.19c-4.6,3.6-4.79,6.18-4.86,7.28c-6.82,95.42-24.15,185.51-61.8,321.34
					c-6.17,22.27-15.36,48.53-25.08,76.32c-23.93,68.44-53.72,153.61-53.69,224.38c0.03,62.21,13.09,107.48,39.91,138.38
					c49.01,56.45,122.29,56.27,255.34,55.93C788.06,3446.97,798.86,3446.94,810.01,3446.94z"/>
			</g>
			<g>
				<path class="st4" d="M979.17,3473.84c-1.38-3.27-2.63-6.84-3.76-10.66C976.51,3466.99,977.76,3470.56,979.17,3473.84z"/>
			</g>
			<g>
				
					<ellipse transform="matrix(0.1863 -0.9825 0.9825 0.1863 -2532.7427 3759.1602)" class="st47" cx="1003.15" cy="3408.67" rx="69.81" ry="38.39"/>
			</g>
			<g>
				<path class="st48" d="M1067.05,2800.68l0.16,1.65v-1.78C1067.14,2800.59,1067.08,2800.65,1067.05,2800.68z"/>
			</g>
			<g>
				<polygon class="st48" points="1140.53,2802.33 1140.72,2802.33 1140.72,2800.68 1140.56,2802.3 				"/>
			</g>
			<g class="st11">
				<path class="st12" d="M963.8,3435.1c2.34,22.57,12.03,39.43,26.36,42.15c11.46,2.17,23.46-5.18,33.17-18.5
					C1002.17,3460.23,979.89,3455.31,963.8,3435.1z"/>
			</g>
			<g>
				<path class="st4" d="M424.52,3312.49l-1.54,19.45l-7.23,92.4c-10.88,34.1-58.82,58.13-105.31,23.75
					c-21.88-16.16-43.6-55.54-58.25-102.87c-23.42-75.91-28.78-172.37,12.38-226.69c43.97-58.09,132.06-48.31,152.24,30.73
					c10.43,41.12,0.37,102.06,7.23,159.22C424.15,3309.81,424.35,3311.15,424.52,3312.49z"/>
			</g>
			<g>
				<path class="st18" d="M424.52,3312.49l-1.54,19.45l-7.23,92.4c-10.88,34.1-58.82,58.13-105.31,23.75
					c-21.88-16.16-43.6-55.54-58.25-102.87c18.88,25.7,51.48,57.12,97.51,48.63c35.36-6.58,63.61-62.32,74.33-85.37
					C424.15,3309.81,424.35,3311.15,424.52,3312.49z"/>
			</g>
			<g>
				<path class="st5" d="M423.49,3426.79c-1.73,21.62-18.21,40.1-37.85,48.56c-25.55,10.84-54.94,5.73-77.51-8.26
					c-29.94-18.12-46.64-51.23-59.75-81.58c-27.18-68.69-39.73-143.08-23.99-216.57c8.89-37.89,30.54-76.56,67.75-94.06
					c37.72-19.37,88.41-11.15,116.3,21.67c39.72,45.27,29.15,108.69,26.61,163.36c-1.14,17.25-2.03,34.28-2.47,51.51
					c-0.01,4.59-3.82,8.29-8.4,8.16c-3.69-0.09-6.75-2.62-7.69-6c-14.99-51.51-5.91-104.99-15-155.25
					c-12.77-67.23-90.13-81.29-127.43-24.94c-41.27,66.59-21.56,169.34,6.3,238.75c14.45,33.45,34.73,72.78,74.63,76.1
					c21.03,0.82,39.62-8.56,53.05-26.41C412.59,3414.42,424.13,3418.26,423.49,3426.79L423.49,3426.79z"/>
			</g>
			<g>
				
					<ellipse transform="matrix(0.9953 -0.0968 0.0968 0.9953 -319.163 46.7161)" class="st16" cx="321.98" cy="3313.4" rx="41.32" ry="75.14"/>
			</g>
			<g>
				
					<ellipse transform="matrix(0.0304 -0.9995 0.9995 0.0304 -2861.7485 3474.8455)" class="st16" cx="360.26" cy="3212.53" rx="27.81" ry="15.3"/>
			</g>
			<g>
				
					<ellipse transform="matrix(0.0304 -0.9995 0.9995 0.0304 -2863.7026 3395.634)" class="st16" cx="318.45" cy="3173.93" rx="38.57" ry="21.21"/>
			</g>
			<g>
				
					<ellipse transform="matrix(0.0304 -0.9995 0.9995 0.0304 -2937.5796 3387.8152)" class="st16" cx="277.48" cy="3208.1" rx="25.55" ry="14.05"/>
			</g>
			<g>
				<path class="st2" d="M659.77,3118.96c29.72,59.88,105.23,167.26,3.49,220.48c-10.6,5.56-45.79,14.09-78.92,1.91
					c-49.32-18.11-89.19-74.7-107.01-145.09c-12.59-49.61-14.25-106.08-0.53-160.8c32.68-130.31,88.09-208.46,120.21-337.03
					c9.78-39.05,17.42-82.74,21.6-133.97h233.63L650.6,2761.39l-1.54,1.5c-15.39,95.56-61.67,200.95,5.89,345.92
					C656.44,3112.18,658.07,3115.55,659.77,3118.96z"/>
			</g>
			<g>
				<path class="st3" d="M852.24,2564.46l-193.73,189.22c-25.49-5.72-49.32-12.58-71.08-20.42c3.37-11.2,6.58-22.81,9.58-34.83
					c9.78-39.05,17.42-82.74,21.6-133.97H852.24z"/>
			</g>
			<g>
				<path class="st4" d="M852.24,2564.46L650.6,2761.39c-14.53-15.14-32.11-38.36-53.59-62.96c9.78-39.05,17.42-82.74,21.6-133.97
					H852.24z"/>
			</g>
			<g>
				<path class="st18" d="M852.24,2564.46l-193.73,189.22c-6.45-1.46-12.75-2.96-18.96-4.55c-12.18-14.13-26.22-32.03-42.54-50.7
					c9.78-39.05,17.42-82.74,21.6-133.97H852.24z"/>
			</g>
			<g>
				<path class="st4" d="M663.26,3339.44c-10.6,5.56-45.79,14.09-78.92,1.91c-49.32-18.11-89.19-74.7-107.01-145.09
					c23.46-43.44,75.55-104.86,177.61-87.44c1.5,3.37,3.13,6.74,4.83,10.15C689.49,3178.84,765,3286.22,663.26,3339.44z"/>
			</g>
			<g>
				<path class="st18" d="M663.26,3339.44c-10.6,5.56-45.79,14.09-78.92,1.91c-35.97-13.19-66.94-46.89-87.97-91.5
					c17.42,22.17,38.08,38.57,60.73,46.89c33.13,12.18,68.32,3.65,78.92-1.91c84.64-44.29,46.6-126.05,14.29-186.74
					c1.54,0.2,3.09,0.49,4.63,0.73c1.5,3.37,3.13,6.74,4.83,10.15C689.49,3178.84,765,3286.22,663.26,3339.44z"/>
			</g>
			<g>
				<path class="st5" d="M657.06,2764.18c-3.06,32.64-9.47,64.38-14.31,95.7c-10.18,61.63-12.17,123.93,5.6,183.86
					c6.32,21.94,15.05,43.9,25.22,64.42c18.29,36.6,39.74,69.96,51.87,111.85c14.61,47.38,4.82,96.69-39.21,125.3
					c-38.27,26.94-93.83,24.28-132.24-0.67c-94.44-63.91-119.37-208.75-92.93-313.14c23.33-98.09,73.57-189.62,104.69-283.45
					c19.95-59.78,31.49-121.92,36.63-184.92c0.54-8.55,7.74-15.1,16.21-14.94c19.47,0.21,38.94,1.26,58.41,1.85
					c37.36,1.27,136.68,4.96,175.23,6.29c4.48,0.16,7.99,3.93,7.83,8.41c-0.15,4.28-3.62,7.67-7.83,7.83
					c-39.21,1.37-137.45,4.96-175.23,6.29c-19.47,0.59-38.94,1.64-58.41,1.85l16.21-14.94c-5.27,65.21-17.52,130.25-38.17,192.44
					c-35.19,107.51-92.82,203.44-110.45,314.89c-9.37,74.13,5.81,156.45,53.42,215.06c28.44,34.95,68.69,51.5,110.76,38.39
					c6.2-1.87,11.52-5.64,16.86-9.05c31.21-20.09,35.8-54.03,25.26-88.12c-8.15-28.33-23.2-55.86-38.44-84.17
					c-31.69-58.09-52.17-125.31-50.5-192.18c0.48-66.1,22.02-128.8,37.5-191.42C643.31,2751.99,657.94,2754.1,657.06,2764.18
					L657.06,2764.18z"/>
			</g>
			<g>
				<path class="st5" d="M592.58,3296.79c14.51,17.36,37.16,34.69,60.83,29.98c23.58-3.26,26.45,31.86,2.61,32.41
					c-34.56,0.06-61.93-25.16-77.32-53.96C574.1,3296.22,586.75,3288.62,592.58,3296.79L592.58,3296.79z"/>
			</g>
			<g>
				<path class="st5" d="M659.94,3263.57c7.28,9.34,20.79,21,32.63,13.75c4.06-1.94,7.39-6.09,10.82-9.12
					c16.31-14.2,37.74,9.19,22.14,24.2c-13.84,10.74-33.05,17.55-50.09,10.33c-14.85-6.42-23.42-17.83-29.88-31.62
					c-1.83-4.09,0.01-8.89,4.1-10.71C653.48,3258.66,657.77,3260.21,659.94,3263.57L659.94,3263.57z"/>
			</g>
			<g>
				<path class="st2" d="M1140.71,2950.9c0,0-29.76,152.97-93.17,269.52c-49.61,91.14-119.8,159.99-212.48,115.94
					c-50.18-23.87-81.44-104.41,15.51-226.81c0.57-0.69,1.1-1.38,1.67-2.07c122.76-153.21,147-321.24,147-321.24L1140.71,2950.9z"/>
			</g>
			<g>
				<path class="st4" d="M1047.55,3220.41c-49.61,91.14-119.8,159.99-212.48,115.94c-50.18-23.87-81.44-104.41,15.51-226.81
					C901.77,3106.87,1017.99,3113.16,1047.55,3220.41z"/>
			</g>
			<g>
				<path class="st18" d="M1047.55,3220.41c-49.61,91.14-119.8,159.99-212.48,115.94c-36.86-17.54-63.49-65.64-36.62-138.43
					c-2.44,45.55,19.57,76.2,47.38,89.43c82.29,39.09,146.88-10.8,195.02-86.27C1043.4,3207.14,1045.68,3213.55,1047.55,3220.41z"/>
			</g>
			<g>
				<path class="st5" d="M865.65,3269.29c-13.99,26.21-44.12,40.13-73.24,37.45c-18.87-0.84-18.36-28.55,0.56-28.66
					c6.35,0.69,12.58,3.06,19,2.82c15.83,0.7,32.17-7.48,42.08-19.57C859.53,3254.97,869.61,3261.95,865.65,3269.29L865.65,3269.29z
					"/>
			</g>
			<g>
				<path class="st5" d="M928.27,3291.92c-5.68,24.87-18.72,48.91-42.45,60.93c-8.34,4.42-17.8,6.06-27.1,6.8
					c-7.86,0.62-14.73-5.24-15.35-13.1s5.24-14.73,13.1-15.35c6.6,0.01,13.37,1.05,19.76-1.28c18.55-5.72,31.52-24.56,38.5-42.05
					C917.9,3279.85,930.03,3283.52,928.27,3291.92L928.27,3291.92z"/>
			</g>
			<g>
				<path class="st5" d="M1148.69,2952.46c-23.84,140.44-116.23,483.71-315.28,400.91c-74.08-31.75-72.94-119.33-41.55-181.53
					c15.7-34.53,40.19-64.73,62.88-94.29c64.33-87.31,103.28-189.48,136.46-292.48c2.47-9.01,16.24-7.51,16.07,2.32
					c-1.97,50.8-16.04,99.14-34.18,146.1c-20.75,52.5-48.67,102.06-81.18,148.17c-24.36,34.49-53.23,65.53-70.68,104.03
					c-23.16,45.57-30,115.39,25.18,137.88c126.72,55.84,208.2-142.27,243.38-234.86c16.69-45.51,31.1-92.39,42.96-139.34
					C1135.07,2939.39,1150.21,2942.01,1148.69,2952.46L1148.69,2952.46z"/>
			</g>
			<g>
				<path class="st2" d="M1321.57,3339.28c-1.83,16.4-4.59,32.11-8.44,46.89c-9.46,36.21-25.57,66.78-50.66,87.69
					c-52.17,43.44-139.33,44.53-211.47,41.57c-3.25-0.12-9.22-19.61-15.91-46.2c-14.37-57.36-31.95-147.81-31.95-147.81
					c-0.28-2.23-0.57-4.47-0.77-6.66c-17.74-167.26,118.13-234.28,187.27-159.75l72.87-204.12
					C1288.12,3027.58,1336.35,3205.76,1321.57,3339.28z"/>
			</g>
			<g>
				<path class="st3" d="M1321.57,3339.28c-1.83,16.4-4.59,32.11-8.44,46.89c-9.46,36.21-25.57,66.78-50.66,87.69
					c-52.17,43.44-139.33,44.53-211.47,41.57c-3.25-0.12-9.22-19.61-15.91-46.2c-14.37-57.36-31.95-147.81-31.95-147.81
					c-0.28-2.23-0.57-4.47-0.77-6.66l88.17-68.45c0,0,40.23,151.67,141.07,154.51C1278.7,3402.16,1305.94,3374.52,1321.57,3339.28z"
					/>
			</g>
			<g>
				<path class="st18" d="M1313.13,3386.17c-9.46,36.21-25.57,66.78-50.66,87.69c-52.17,43.44-139.33,44.53-211.47,41.57
					c-3.25-0.12-9.22-19.61-15.91-46.2l58.09-94.02C1093.18,3375.21,1236.32,3526.39,1313.13,3386.17z"/>
			</g>
			<g>
				<path class="st5" d="M1277.89,2945.76c43.33,135.62,112.33,410.29,8.75,527.31c-59.11,62.79-156.58,60.88-235.75,58.6
					c-9.52,0.04-15.94-8.1-18.72-15.6c-14.28-39.8-21.32-80.55-30.62-121.31c-3.87-18.61-10.83-52.01-14.36-70.37
					c-8.48-60.96,0.51-130.12,46.69-175.74c31.91-32.82,84.64-48.11,127-27.06c13.68,6.77,25.62,16.41,34.69,27.91
					c2.78,3.53,2.18,8.65-1.35,11.44c-3.18,2.51-7.67,2.26-10.55-0.4c-18.02-16.61-41.96-25.42-66.03-22.55
					c-77.67,11.03-107.2,102.47-99.35,171.96c0.28,2.24,0.61,6.65,0.91,8.86c0,0,1.9,9.61,1.9,9.61
					c10.62,51.82,21.38,106.75,35.28,157.54c2.01,6.82,3.85,13.4,6.32,18.77c0.12,0.28,0.33,0.53-0.17-0.19
					c-0.3-0.32-0.63-1.05-2.73-2.61c-1.74-1.36-3.65-2.03-6.56-2.61c-2.62-0.25-1.04-0.08-1.33-0.12l0.31,0.01l2.51,0.1
					c60.09,1.7,126.75,3.15,180.12-26.1c44.84-24.97,62.28-75.83,69.2-124.73c10.29-78.83-0.57-158.98-15.85-237.07
					c-10.72-52.51-24.38-104.71-41.15-155.47C1240.84,2935.71,1270.47,2925.37,1277.89,2945.76L1277.89,2945.76z"/>
			</g>
			<g>
				<path class="st4" d="M1094.44,3386.2l-8.76,111.82c-10.9,34.09-58.81,58.13-105.33,23.78c-20.96-15.47-41.72-52.19-56.31-96.86
					c-25.04-76.75-31.79-176.92,10.48-232.72c43.96-58.1,132.06-48.3,152.2,30.75c8.17,32.02,3.86,76.1,4.77,121.06c0,0,0,0,0,0.03
					C1091.78,3358.14,1092.59,3372.28,1094.44,3386.2z"/>
			</g>
			<g>
				<path class="st18" d="M1094.44,3386.2l-8.76,111.82c-10.9,34.09-58.81,58.13-105.33,23.78c-20.96-15.47-41.72-52.19-56.31-96.86
					c15.31,19.46,37.86,37.82,69.52,40.84c83.89,7.98,97.64-118.95,97.93-121.71C1091.78,3358.14,1092.59,3372.28,1094.44,3386.2z"
					/>
			</g>
			<g>
				<path class="st5" d="M1093.42,3500.48c-1.73,21.62-18.21,40.1-37.85,48.56c-25.55,10.84-54.94,5.73-77.51-8.26
					c-29.94-18.12-46.64-51.23-59.75-81.58c-27.18-68.69-39.73-143.08-23.99-216.57c8.9-37.89,30.54-76.56,67.75-94.06
					c37.72-19.37,88.4-11.14,116.3,21.67c39.72,45.27,29.14,108.69,26.6,163.36c-1.14,17.25-2.03,34.28-2.47,51.51
					c-0.02,4.59-3.82,8.29-8.41,8.16c-3.69-0.09-6.75-2.62-7.69-6c-14.99-51.51-5.91-104.99-15.01-155.25
					c-12.77-67.23-90.12-81.29-127.43-24.94c-41.27,66.59-21.56,169.33,6.3,238.75c14.45,33.45,34.73,72.78,74.63,76.1
					c21.03,0.82,39.62-8.56,53.05-26.41C1082.53,3488.11,1094.06,3491.95,1093.42,3500.48L1093.42,3500.48z"/>
			</g>
			<g>
				
					<ellipse transform="matrix(0.9953 -0.0968 0.0968 0.9953 -323.1495 111.899)" class="st16" cx="991.92" cy="3387.08" rx="41.32" ry="75.14"/>
			</g>
			<g>
				
					<ellipse transform="matrix(0.0304 -0.9995 0.9995 0.0304 -2285.8542 4215.9126)" class="st16" cx="1030.19" cy="3286.21" rx="27.81" ry="15.3"/>
			</g>
			<g>
				
					<ellipse transform="matrix(0.0304 -0.9995 0.9995 0.0304 -2287.8086 4136.7017)" class="st16" cx="988.38" cy="3247.62" rx="38.57" ry="21.21"/>
			</g>
			<g>
				
					<ellipse transform="matrix(0.0304 -0.9995 0.9995 0.0304 -2361.6853 4128.8828)" class="st16" cx="947.42" cy="3281.79" rx="25.55" ry="14.05"/>
			</g>
			<g>
				<g>
					<path class="st5" d="M272.69,2281.94c-55.45-46.1-122.76-78.34-193.06-94.2c-23.64-5.9-47.83-8.75-72.04-11.84
						c-4.7-0.37-8.23-4.64-7.49-9.34c0.62-4.08,4.17-6.98,8.19-6.89c6.31,0.14,12.64,0.26,18.96,0.52
						c3.35,0.09,11.07,0.43,14.26,0.53c39.31,3.21,79.31,11.65,116.15,25.83c23.89,9.06,46.92,20.53,68.42,34.4
						c21.55,14.01,41.44,29.8,58.61,50.05c2.9,3.42,2.48,8.54-0.94,11.43C280.46,2285.25,275.65,2284.9,272.69,2281.94
						L272.69,2281.94z"/>
				</g>
				<g>
					<path class="st5" d="M268.37,2378.4c-59.97-18.7-124.98-30.89-187.42-18.48c-20.58,3.92-40.47,10.88-59.46,20.18
						c-4.04,2.09-9.04,0.44-11.04-3.65c-1.82-3.73-0.53-8.17,2.86-10.38c57.72-38.27,132.47-42.55,198.33-26.34
						c22.02,5.58,43.21,12.83,63.56,23.93c3.94,2.15,5.4,7.09,3.24,11.03C276.46,2378.34,272.11,2379.81,268.37,2378.4
						L268.37,2378.4z"/>
				</g>
				<g>
					<path class="st2" d="M393.66,2057.62l177.85-167.1l205.52-193.05c-129.2-116.35-376.61-236.19-446.8-186.84
						c-13.29,9.37-22.81,29.34-28.58,57.16C279.97,1672.14,311.02,1886.2,393.66,2057.62z"/>
				</g>
				<g>
					<path class="st3" d="M393.66,2057.62l177.85-167.1c-57.81-119.67-200.65-392.54-269.86-322.73
						C279.97,1672.14,311.02,1886.2,393.66,2057.62z"/>
				</g>
				<g class="st8">
					<path class="st4" d="M299.41,1580.1c5.57-15.92,13.04-27.6,22.28-34.11c67.58-47.55,299.21,61.68,431.72,173.67l23.62-22.2
						c-129.2-116.35-376.61-236.19-446.8-186.84C315.07,1521.29,304.8,1545.9,299.41,1580.1z"/>
				</g>
				<g>
					<path class="st5" d="M393.68,2073.86c-6.04,0-11.84-3.38-14.64-9.18c-49.2-102.03-84.26-227.28-96.19-343.65
						c-5.66-55.22-13.29-187.57,38.03-223.67c82.73-58.17,340.33,73.96,467.01,188.05c6.66,6,7.2,16.27,1.2,22.93
						c-5.99,6.67-16.26,7.2-22.93,1.2c-135.82-122.33-371-224.67-426.59-185.61c-50.8,35.73-36,309.45,68.74,526.64
						c3.89,8.08,0.5,17.79-7.57,21.68C398.46,2073.35,396.05,2073.86,393.68,2073.86z"/>
				</g>
				<g>
					<path class="st16" d="M395.43,1876.32c35.5-55.68,65.79-94.07,92.56-123.04c23.48-25.35,44.24-43.42,63.45-59.41
						c-6.82-24.26-170.12-150.08-191.57-105.47c-6.41,13.34-10.18,33.22-11.54,56.66C344,1717.68,362.45,1824.42,395.43,1876.32z"/>
				</g>
				<g>
					<path class="st20" d="M348.33,1645.07c9.26-13.37,23.67-29.46,37.96-26.93c24.32,4.32,80.07,80.67,101.7,135.14
						c23.48-25.35,44.24-43.42,63.45-59.41c-6.82-24.26-170.12-150.08-191.57-105.47C353.46,1601.74,349.69,1621.63,348.33,1645.07z
						"/>
				</g>
				<g>
					<path class="st5" d="M395.42,1906.54l-13.68-21.51c-45.65-71.78-66.12-242.05-36.51-303.66l0,0
						c3.75-7.8,13.62-20.59,37.72-18.45c54.44,4.78,176.01,97.66,184.11,126.59l2.84,10.13l-8.09,6.73
						c-41.75,34.73-87.92,77.14-152.68,178.68L395.42,1906.54z M374.43,1595.57c-20.2,42.33-9.71,174.58,22.54,248.69
						c53.99-80.75,95.45-121.46,132.83-153.39c-22.01-23.93-92.43-78.65-137.14-92.83C380.29,1594.12,375.46,1595.22,374.43,1595.57
						z"/>
				</g>
				<g>
					<path class="st2" d="M926.69,1679.16l284.6,253.06l123,109.35c87.07-180.36,113.69-408.07,82.11-505.99
						c-6.5-20.15-15.45-34.77-26.85-42.41C1315.25,1443.4,1059.26,1562.84,926.69,1679.16z"/>
				</g>
				<g>
					<path class="st3" d="M1211.3,1932.22l123,109.35c87.07-180.36,113.69-408.07,82.11-505.99c-24.95-28.64-64.23-48.38-97.01,47.8
						C1285.39,1682.98,1238.11,1841.1,1211.3,1932.22z"/>
				</g>
				<g class="st8">
					<path class="st4" d="M926.69,1679.16l17.94,15.94c137.38-109.42,388.69-209.46,441.42-183.61
						c42.87,21.01,41.91,169.02,26.74,287.8c28.1-147.11,19.99-277.2-23.24-306.12C1315.25,1443.4,1059.26,1562.84,926.69,1679.16z"
						/>
				</g>
				<g>
					<path class="st5" d="M1334.27,2057.8c-2.37,0-4.78-0.52-7.05-1.62c-8.08-3.9-11.46-13.61-7.56-21.68
						c104.96-217.38,114.71-491.82,60.86-527.86c-60.39-40.42-300.6,59.7-443.13,184.72c-6.74,5.91-17.01,5.25-22.92-1.5
						c-5.91-6.74-5.24-17,1.5-22.92c129.8-113.86,395.5-245.59,482.61-187.29c54.08,36.2,48.75,168.95,43.94,224.35
						c-10.13,116.76-44.25,242.37-93.62,344.62C1346.1,2054.42,1340.31,2057.8,1334.27,2057.8z"/>
				</g>
				<g class="st17">
					<path class="st4" d="M1045.88,1601.33c6.12,2.43,3.46,11.69-3,10.43c-44.45-8.64-87.25-13.09-126.06-12.96
						c-44.63,0.18-102.75,3.58-168.67,14.42c0.02-16.48,1.11-32.76,3.25-48.8c56.92-5.6,106.6-4.36,143.42-1.23
						C940.72,1567.07,993.45,1580.49,1045.88,1601.33z"/>
				</g>
				<g>
					<path class="st2" d="M863.13,2710.7L863.13,2710.7c37.51-2.33,74.9-6.77,111.86-13.59c309.72-57.1,437.79-190.1,475.76-286.47
						c1.1-2.87,2.17-5.73,3.22-8.63c0.59-1.66,1.12-3.36,1.68-5c1.45-4.28,2.86-8.56,4.03-12.92c0.65-2.44,1.31-4.89,1.96-7.33
						c0.07-0.19,0.09-0.37,0.12-0.55c0.08-0.41,0.2-0.83,0.33-1.21c0.46-1.98,0.93-3.92,1.35-5.89c0.59-2.36,1.09-4.74,1.55-7.11
						c0.47-2.2,0.87-4.37,1.27-6.55c0.49-2.67,0.98-5.34,1.38-8.03c0.72-4.71,1.36-9.52,1.93-14.3c0.18-1.55,0.35-3.1,0.46-4.71
						c0.23-1.65,0.37-3.31,0.49-5.01c0.2-1.98,0.34-4.03,0.5-6.04c5.15-73.48-10.55-152.41-34.16-226.58
						c-23.45-73.71-54.67-142.76-80.9-197.08c0,0-38.33-69.7-126.71-158.09c-75.4-75.39-144.4-115.3-163.07-125.38
						c-3.21-1.76-4.94-2.6-4.94-2.6c-57.42-24.41-116.05-40.17-166.46-44.43c-81.33-6.89-225.51-4.65-371.54,60.33
						c-114.33,50.83-183.55,135.45-226.35,224.3c-62.17,128.99-68.55,266.84-76.25,322.88c-2.1,14.95-28.19,55.25-41.55,112.08
						l0.01,0.04c-1.05,4.35-1.95,8.77-2.8,13.31c-0.4,2.17-0.79,4.35-1.14,6.55c-0.4,2.3-0.76,4.59-1.06,6.91
						c-0.03,0.05-0.05,0.1-0.03,0.18c-0.25,1.96-0.55,3.93-0.78,5.96c-0.11,1.1-0.24,2.25-0.38,3.4c-0.38,3.91-0.75,7.87-0.97,11.9
						c-0.18,2.44-0.27,4.9-0.35,7.4c-0.08,1.98-0.13,4.04-0.14,6.09c-0.01,0.9-0.04,1.84-0.03,2.78c0,2.09,0.04,4.16,0.08,6.23
						c0.04,2.59,0.16,5.19,0.33,7.77c0.24,5.16,0.69,10.46,1.29,15.8c0.32,2.66,0.66,5.28,1.04,8.01c0,0,0,0,0.01,0.04
						c0.34,2.36,0.69,4.71,1.14,7.12c0.14,0.68,0.23,1.37,0.38,2.09c0.42,2.33,0.91,4.73,1.39,7.12c0.81,3.78,1.67,7.59,2.67,11.43
						c30.27,117.01,186.25,229.41,437.14,281.08C697.82,2710.67,780.68,2715.82,863.13,2710.7z"/>
				</g>
				<g>
					<path class="st4" d="M280.12,2552.12c75.29,60.34,188.94,111.21,334.84,141.49c81.53,16.92,165.06,22.25,248.17,17.09h0
						c37.51-2.33,74.9-6.77,111.86-13.59c309.72-57.1,437.79-190.1,475.77-286.47c1.1-2.87,2.17-5.73,3.22-8.63
						c0.59-1.66,1.12-3.36,1.68-5c1.45-4.28,2.86-8.56,4.03-12.92c0.65-2.44,1.31-4.89,1.96-7.33c0.07-0.19,0.09-0.37,0.12-0.55
						c0.58-2.4,1.18-4.73,1.68-7.11c0.59-2.36,1.09-4.74,1.55-7.11c0.47-2.2,0.87-4.37,1.27-6.55c0.49-2.67,0.98-5.34,1.38-8.03
						c0.72-4.71,1.36-9.52,1.93-14.3c0.18-1.55,0.35-3.1,0.46-4.71c0.23-1.65,0.37-3.31,0.49-5.01c0.2-1.98,0.34-4.03,0.5-6.04
						c-15.9,11.41-33.85,23.58-53.71,35.78c-85.18,52.58-204.49,106.31-338.81,105.5c-203.59-1.16-291.45-123.92-329.9-159.6
						c-23.4-21.69-120.29-32.14-149.08,10.06c-61.18,89.67-347.18,169.9-420.42-26.28c-1.05,4.35-1.95,8.77-2.8,13.31
						c-0.4,2.17-0.79,4.35-1.14,6.55c-0.4,2.3-0.76,4.59-1.06,6.91c-0.03,0.05-0.05,0.1-0.03,0.18c-0.25,1.96-0.55,3.93-0.78,5.96
						c-0.11,1.1-0.24,2.25-0.38,3.4c-0.38,3.91-0.71,7.86-0.97,11.9c-0.18,2.44-0.27,4.9-0.35,7.4c-0.08,1.98-0.13,4.04-0.14,6.09
						c-0.01,0.9-0.04,1.84-0.03,2.78c0,2.09,0.04,4.16,0.08,6.23c0.04,2.59,0.16,5.19,0.33,7.77c0.24,5.16,0.69,10.46,1.29,15.8
						c0.32,2.66,0.66,5.28,1.04,8.01c0,0,0,0,0.01,0.04c0.34,2.36,0.69,4.71,1.14,7.12c0.14,0.68,0.23,1.37,0.38,2.09
						c0.42,2.33,0.91,4.73,1.39,7.12c0.81,3.78,1.67,7.59,2.67,11.43C192.31,2461.46,226.48,2509.19,280.12,2552.12z"/>
				</g>
				<g>
					<path class="st18" d="M1467.6,2347.58c-0.35,2.65-0.84,5.26-1.33,7.87c-0.4,2.17-0.8,4.33-1.28,6.54
						c-0.44,2.39-0.93,4.77-1.55,7.12c-0.49,2.39-1.1,4.69-1.68,7.12c0,0.18-0.04,0.35-0.09,0.53c-0.66,2.47-1.33,4.91-1.99,7.34
						c-1.15,4.38-2.56,8.66-4.02,12.95c-0.57,1.64-1.1,3.31-1.68,4.99c-1.06,2.87-2.12,5.75-3.23,8.62
						c-37.97,96.35-166.05,229.34-475.79,286.44c-36.95,6.85-74.34,11.27-111.82,13.61c-83.14,5.13-166.67-0.18-248.17-17.1
						c-145.94-30.28-259.57-81.15-334.88-141.48c-53.61-42.96-87.78-90.65-100.33-139.22c-1.02-3.85-1.86-7.65-2.65-11.4
						c-0.49-2.39-0.97-4.82-1.41-7.12c-0.13-0.75-0.27-1.41-0.4-2.12c-0.44-2.39-0.8-4.77-1.1-7.12c-0.04-0.04-0.04-0.04-0.04-0.04
						c-0.22-1.55-0.4-3.09-0.62-4.6c17.24,22.36,129.92,202.96,428.45,229.16C1212.77,2663.29,1404.44,2442.03,1467.6,2347.58z"/>
				</g>
				<g>
					<path class="st5" d="M707.93,2716.05c-164.95-7.99-372.02-71.79-486.65-195.84c-31.23-34.33-55.43-77.3-62.95-123.77
						c-13.26-68.5,3.91-139.62,33.24-201.38c3.71-8.28,7.59-16.39,10.58-24.58c0.21-1.69,0.82-2.31,0.93-4.74
						c0.99-6.99,2.39-20.91,3.23-28.11c16.69-188.6,76.85-389.08,245.77-495.61c120.98-75.32,278.89-104.18,419.71-96.33
						c22.45,1.13,45.06,4.01,67.04,8.69c44.04,9.69,86.26,25.13,125.59,45.77c8.44,4.95,3.36,17.77-6.31,14.96
						c-61.65-20.24-123.4-35.89-187.97-37.56c-142.91-5.75-308.46,25.56-424.6,112.31c-102.98,77.05-158.83,200.3-184.06,323.73
						c-10.72,49.82-16.21,101.51-22.06,152.71c-0.67,9.38-4.19,19.93-8.2,28.41c-20.23,43.04-37.94,87.16-41.27,134.56
						c-2.57,40.21,2.98,81.94,21.77,117.96c70.59,126.9,237.6,188.06,371,225.07c41.87,11.38,83.98,20.61,126.83,27.58
						c4.43,0.73,7.43,4.92,6.7,9.36C715.57,2713.33,711.96,2716.19,707.93,2716.05L707.93,2716.05z"/>
				</g>
				<g>
					<path class="st5" d="M1363.31,1890.17c70.26,114.68,125.31,266.64,126.49,402.46c2.84,175.83-124.84,284.44-274.27,350.48
						c-75.79,32.05-156.42,58.08-239.06,61.98c-9.31,0.38-12.07-12.96-2.94-15.97c49.56-17.63,99.34-29.77,148.49-46.01
						c25.13-8.46,55.12-20.35,79.58-31.28c90.28-41.86,179.13-101.34,225.05-191.96c57.02-124,15.25-270.16-29.32-392.67
						c-15.92-43.15-33.28-85.9-48.64-130c-1.49-4.26,0.76-8.92,5.02-10.41C1357.36,1885.53,1361.32,1887.02,1363.31,1890.17
						L1363.31,1890.17z"/>
				</g>
				<g>
					<g>
						<path class="st5" d="M364.88,1936.28c-6.8-10.35,45.81-126.22,130.44-102.26c31,8.78,26.16,36.11,8.41,44.94
							c-16.9,8.41-43.23,8.13-64.92,17.5C396.52,1914.73,371.68,1946.63,364.88,1936.28z"/>
					</g>
					<g>
						<path class="st5" d="M1071.22,1945.36c7.31-11.55-52.94-138.43-145.88-110.38c-34.04,10.27-28.19,40.34-8.44,49.75
							c18.81,8.96,47.86,8.15,71.97,18.08C1035.9,1922.17,1063.91,1956.91,1071.22,1945.36z"/>
					</g>
				</g>
				<g>
					<path class="st5" d="M675.44,2341.36c0.53,13.35,3.21,27.51,8.22,39.93c1.59,4.13,3.64,7.91,5.71,11.53
						c4.02,7.05,1.56,16.03-5.49,20.05c-8.12,4.78-18.99,0.28-21.43-8.78c-4.73-15.92-5.6-32.44-4.02-48.75
						c1.56-7.16-0.16-23.07,11.2-21.43C673.19,2334.66,675.52,2337.88,675.44,2341.36L675.44,2341.36z"/>
				</g>
				<g>
					<path class="st5" d="M746.71,2323.79c-2.46,13.74-52.15,38.88-79.81,38.01c-29.69-0.94-61.03-25.68-64.48-39.04
						c-4.05-15.64,21.17-33.74,79.53-30.36C729.69,2295.15,749.41,2308.72,746.71,2323.79z"/>
				</g>
				<g class="st17">
					<path class="st4" d="M680.43,2304.95c1.05,4.05-9.47,9.28-17.96,9.51c-4.82,0.13-22.12,0.4-23.27-4.04
						c-1.15-4.44,3.59-8.68,19.57-10.53C673.3,2298.22,679.39,2300.9,680.43,2304.95z"/>
				</g>
				<g>
					<path class="st16" d="M1162.2,1676.24c43.63,34.46,94.89,78.47,166.6,183.46c3.59-5.56,7.01-11.79,10.17-18.53
						c22.37-47,35.18-119.58,35.54-180.12c0.25-37.68-4.28-70.69-14.35-90.02C1336.87,1526.23,1168.82,1651.93,1162.2,1676.24z"/>
				</g>
				<g>
					<path class="st20" d="M1162.2,1676.24c43.63,34.46,94.89,78.47,166.6,183.46c3.59-5.56,7.01-11.79,10.17-18.53
						c-6.24-43.31-41.65-89.78-55.74-126.23c-29.23-75.61,28.07-124.02,50.05-116.56c13.03,4.43,33.03,44.9,41.22,62.67
						c0.25-37.68-4.28-70.69-14.35-90.02C1336.87,1526.23,1168.82,1651.93,1162.2,1676.24z"/>
				</g>
				<g>
					<path class="st5" d="M1328.8,1875.94c-5.36,0-10.38-2.65-13.41-7.08c-69.72-102.1-118.87-144.84-163.23-179.87
						c-5.11-4.03-7.31-10.73-5.61-17.01c7.81-28.71,129.44-120.11,187.66-126.36c25.56-2.72,36.26,10.06,40.36,17.93l0,0
						c32.21,61.96,14.2,232.95-32.11,304.93c-2.95,4.58-7.99,7.38-13.44,7.45C1328.94,1875.94,1328.87,1875.94,1328.8,1875.94z
						 M1184.14,1672.98c39.89,32.32,84.27,73.53,142.77,155.63c32.52-73.96,40.93-207.56,18.84-250.08l-0.09-0.15l0,0
						c-0.03,0-3.72-2.04-15.84,0.99C1284.36,1590.72,1207.8,1647.78,1184.14,1672.98z"/>
				</g>
				<g>
					<g>
						<ellipse class="st5" cx="956.37" cy="2247.52" rx="104.13" ry="114.51"/>
					</g>
					<g>
						<ellipse class="st4" cx="929.72" cy="2222.13" rx="39.51" ry="48.46"/>
					</g>
					<g class="st15">
						
							<ellipse transform="matrix(0.219 -0.9757 0.9757 0.219 -1433.8331 2753.4016)" class="st4" cx="1003.11" cy="2272.41" rx="35.63" ry="22.14"/>
					</g>
				</g>
				<g>
					<g>
						<ellipse class="st5" cx="449.97" cy="2234.52" rx="95.81" ry="108.32"/>
					</g>
					<g>
						<ellipse class="st4" cx="479.45" cy="2216.15" rx="38.39" ry="43.78"/>
					</g>
					<g class="st15">
						
							<ellipse transform="matrix(0.9627 -0.2707 0.2707 0.9627 -599.7944 195.9849)" class="st4" cx="410.6" cy="2272.41" rx="27.54" ry="37.63"/>
					</g>
				</g>
				<g>
					<path class="st5" d="M1278.54,2323.77c74-57.01,177.75-73.77,268.65-62.23c9.16,1.43,19.49,2.99,28.57,4.61
						c4.41,0.75,7.38,4.94,6.63,9.35c-0.73,4.35-4.78,7.19-9.03,6.71c-12.46-0.52-24.77-2.01-37.15-2.27
						c-36.57-1.07-74.34,1.15-110.33,7.94c-47.9,9.31-94.97,25.15-137.63,48.91C1279.75,2342.48,1270.52,2330.34,1278.54,2323.77
						L1278.54,2323.77z"/>
				</g>
				<g>
					<path class="st5" d="M1270.06,2418.07c87.79-25.38,193.13-11.97,260.72,53c7.2,7.15-2.63,18.45-10.7,12.22
						c-69.22-53.93-162.06-59.43-246.12-49.46C1264.11,2435.51,1260.49,2421.18,1270.06,2418.07L1270.06,2418.07z"/>
				</g>
				<g>
					<path class="st5" d="M612.71,2421c19.07-32.68,65.39-47.69,98.98-28.69c8.66,3.87,37.71,26.95,24.34,35.96
						c-2.12,1.45-4.68,1.77-6.97,1.11c-42.26-17.99-62.9-17.17-104.59,2.81C617.08,2436.66,608.41,2428.52,612.71,2421L612.71,2421z
						"/>
				</g>
			</g>
			<g>
				<g>
					<g>
						<path class="st4" d="M1818.78,543.69c-0.08,153.47-151.89,277.87-339.02,277.77c-12.06-0.01-24-0.52-35.71-1.55
							c-61.82,67.65-160.44,111.43-271.49,111.38c-66.66-0.03-128.75-15.86-181.14-43.07c-62.17,59.36-154.38,96.9-257.3,96.85
							C595.31,985,476.01,916.47,423.7,818.44c-14.73,1.6-29.82,2.46-45.1,2.45c-187.21-0.1-338.89-124.66-338.81-278.13
							c0.08-144.83,135.22-263.74,307.71-276.61c30.79-64.68,99.12-110.96,179.89-115.9c4.83-0.31,9.66-0.47,14.57-0.46
							c32.21,0.02,62.73,6.63,90.06,18.39c56.02-90.24,170.4-152.01,302.34-151.94c123.85,0.06,232.12,54.6,291.24,135.98
							c6.6-0.51,13.32-0.74,20.03-0.74c9.31,0,18.54,0.52,27.61,1.55c77.06,8.25,144.33,50.9,187.59,112.95
							c6.32-0.31,12.73-0.43,19.21-0.42C1667.18,265.66,1818.86,390.18,1818.78,543.69z"/>
					</g>
					<g class="st8">
						<path class="st4" d="M1818.78,543.7c0,8.57-0.49,17.05-1.42,25.41c-15.71-141.48-160.72-252.31-337.31-252.43
							c-6.49,0-12.87,0.12-19.2,0.45c-43.28-62.07-110.54-104.7-187.59-112.98c-9.05-1.01-18.31-1.5-27.61-1.54
							c-6.74,0-13.44,0.24-20.05,0.77c-59.11-81.4-167.38-135.96-291.2-136c-131.98-0.08-246.34,61.71-302.36,151.91
							c-27.32-11.73-57.85-18.35-90.08-18.39c-4.91,0-9.74,0.16-14.57,0.49c-80.75,4.95-149.07,51.23-179.88,115.9
							C185.19,329.4,55.97,435.39,41.2,568.51c-0.93-8.48-1.42-17.05-1.42-25.74C39.86,397.92,175,279.02,347.5,266.15
							c30.81-64.67,99.14-110.95,179.88-115.9c4.83-0.32,9.66-0.45,14.57-0.45c32.23,0,62.76,6.62,90.08,18.39
							C688.06,77.94,802.42,16.16,934.4,16.24c123.82,0.08,232.09,54.6,291.2,136c6.62-0.53,13.32-0.73,20.05-0.73
							c9.3,0,18.55,0.49,27.61,1.54c77.05,8.24,144.32,50.91,187.59,112.94c6.33-0.32,12.71-0.41,19.2-0.41
							C1667.2,265.66,1818.86,390.17,1818.78,543.7z"/>
					</g>
					<g>
						<path class="st18" d="M1813.58,543.69c-0.08,153.49-151.88,277.86-339.04,277.77c-12.06-0.01-23.98-0.52-35.69-1.57
							c-61.79,67.69-160.45,111.44-271.5,111.39c-66.64-0.03-128.73-15.86-181.11-43.06c-62.16,59.37-154.38,96.93-257.32,96.88
							c-138.8-0.07-258.11-68.63-310.42-166.68c-14.75,1.64-29.84,2.48-45.12,2.47C186.18,820.79,34.51,696.25,34.6,542.77
							c0.01-26.3,4.47-51.72,12.84-75.83c11.3,228.75,288.21,250.28,371.15,199.74c24.85,46.56,106.59,67.69,171.06,50.49
							c14.33,66.74,85.46,132.12,158.33,131.1c51.28-0.72,92.96-22.69,112.54-74.27c40.72-21.87,92.99-6.21,125.81-37.56
							c28.32,28.27,95.64,77.43,188.06,78.27c177.01,1.61,218.2-67.23,264.55-146.56c11.72,1.05,68.02,27.02,123.83,29.5
							c135.48,6.01,234.63-68.99,238.06-229.84C1809.16,491.94,1813.59,517.4,1813.58,543.69z"/>
					</g>
					<g>
						<path class="st5" d="M729.14,1001.33c-0.07,0-0.15,0-0.22,0c-136.27-0.07-260.26-64.77-319.4-165.71
							c-11.88,1-23.92,1.51-35.93,1.51c-0.07,0-0.14,0-0.21,0c-195.85-0.1-355.12-132.16-355.03-294.38
							c0.04-74.44,33.65-145.42,94.63-199.89c57.69-51.52,135.13-84.04,218.94-92.12c38.23-71.5,117.51-117.2,204.73-117.2
							c0.05,0,0.09,0,0.14,0c28.99,0.01,57.09,4.94,83.73,14.66C683.67,56.44,800.46,0,928.96,0c0.08,0,0.15,0,0.23,0
							c122.32,0.06,233.34,50.55,298.99,135.5c4.04-0.17,8.11-0.26,12.18-0.26c0.04,0,0.07,0,0.11,0
							c87.18,0.04,169.99,42.57,223.27,114.2c3.68-0.09,7.34-0.1,11.11-0.14c195.83,0.1,355.07,132.16,354.99,294.38c0,0,0,0,0,0
							c-0.09,162.15-159.36,294.01-355.07,294.01c-10.08-0.06-19.81-0.33-29.39-0.99c-67.76,70.52-168.5,110.81-277.81,110.81
							c-0.07,0-0.15,0-0.22,0c-62.9-0.03-124.3-13.76-178.34-39.77C921.96,967.35,827.97,1001.33,729.14,1001.33z M418.5,802.19
							c5.95,0,11.48,3.26,14.32,8.59c51.19,95.95,167.42,158,296.11,158.07c0.07,0,0.14,0,0.21,0c94.79,0,184.4-33.67,245.88-92.39
							c5.03-4.8,12.55-5.86,18.7-2.67c51.87,26.95,111.91,41.21,173.64,41.24c0.06,0,0.14,0,0.2,0
							c101.69,0,198.61-39.65,259.32-106.09c3.42-3.74,8.33-5.67,13.43-5.22c11,0.98,22.52,1.49,34.24,1.49c0.06,0,0.15,0,0.21,0
							c177.83,0,322.51-117.29,322.59-261.55c0.07-144.31-144.61-261.79-322.52-261.89c-6.2,0.08-12.4,0.14-18.44,0.42
							c-5.53,0.25-10.88-2.36-14.07-6.93c-46.92-67.3-122.38-107.51-201.86-107.55c-0.03,0-0.06,0-0.09,0
							c-6.31,0-12.61,0.23-18.74,0.69c-5.65,0.41-11.04-2.1-14.35-6.65c-57.89-79.69-164.45-129.23-278.11-129.28
							c-0.07,0-0.14,0-0.21,0c-122.61,0-233.08,55.27-288.34,144.27c-4.24,6.83-12.84,9.52-20.22,6.35
							c-26.28-11.32-54.42-17.07-83.65-17.08c-0.04,0-0.08,0-0.12,0c-78.14,0-148.66,42.04-179.66,107.12
							c-2.5,5.26-7.64,8.77-13.45,9.21C176.73,294.78,50.9,406.73,50.82,542.76C50.75,687.07,195.45,804.56,373.4,804.65
							c0.06,0,0.12,0,0.19,0c14.46,0,28.97-0.79,43.13-2.36C417.31,802.22,417.91,802.19,418.5,802.19z M1813.59,543.68h0.05
							H1813.59z"/>
					</g>
					<g>
						<path class="st18" d="M573.65,560.81c-0.04,73.55-74.95,133.13-167.28,133.08c-92.36-0.05-167.21-59.7-167.17-133.25
							c0-0.22,0-0.45,0-0.67c0.05-7.9,10.02-11.08,15.01-4.95c26.34,32.32,84.59,54.8,152.2,54.84
							c67.6,0.04,125.86-22.38,152.22-54.67c5-6.12,14.97-2.93,15.01,4.97C573.65,560.36,573.65,560.58,573.65,560.81z"/>
					</g>
					<g>
						<path class="st18" d="M1071.89,693.9c-0.01,16.57-4.85,32.3-13.51,46.37c-22.79,37.16-72.09,62.9-129.21,62.87
							c-78.8-0.04-142.68-49.03-142.65-109.39c0-2.99,0.16-5.95,0.47-8.89c0.42-3.97,5.62-5.07,7.82-1.75
							c19.7,29.71,72.44,50.97,134.39,51.01c39.96,0.02,76.1-8.79,102-23.05c14.16-7.78,25.28-17.18,32.28-27.67
							c0.02-0.04,0.05-0.07,0.07-0.11c2.26-3.38,7.48-2.18,7.88,1.86c0.06,0.64,0.12,1.27,0.17,1.91
							C1071.81,689.33,1071.89,691.61,1071.89,693.9z"/>
					</g>
					<g>
						<path class="st18" d="M1219.75,745.98c-0.03,48.86-51.74,88.43-115.45,88.4c-31.92-0.02-60.81-9.97-81.71-26.01
							c-7.07-5.45-13.21-11.58-18.25-18.26c-2.06-2.73-1.31-6.65,1.58-8.47c7.42-4.67,13.57-9.95,18.17-15.68
							c1.63-2.03,4.42-2.69,6.8-1.64c0.79,0.35,1.59,0.69,2.39,1.03c19.59,8.26,44.24,13.19,71.04,13.2
							c46.76,0.02,87.02-14.91,105.16-36.42c3.45-4.09,10.24-1.67,10.25,3.67C1219.75,745.86,1219.75,745.92,1219.75,745.98z"/>
					</g>
				</g>
			</g>
			<g>
				<g>
					<path class="st49" d="M1391.54,993.35c0,0-50.86,24.9-65.95,69.53c-19.05,56.38,12.76,80.73,40.51,65.54
						C1408.01,1105.47,1402.29,1038.48,1391.54,993.35z"/>
				</g>
				<g class="st8">
					<path class="st4" d="M1368.15,1031.07c0,0-14.7,5.79-19.9,17.87c-6.56,15.26,1.75,22.74,9.81,19.14
						C1370.23,1062.63,1370.13,1043.86,1368.15,1031.07z"/>
				</g>
				<g>
					<path class="st50" d="M1366.1,1128.41c-24.07,13.15-51.15-3.37-45.55-44.66c9.09,9.38,22.94,10.92,35.89,3.82
						c30-16.4,35.56-55.41,32.35-92.8c1.75-0.93,2.76-1.42,2.76-1.42C1402.28,1038.49,1408,1105.47,1366.1,1128.41z"/>
				</g>
				<g>
					<path class="st5" d="M1349.75,1140.95c-8.31,0-16.24-2.75-22.71-8.18c-16.42-13.77-19.83-40.87-9.15-72.49
						c15.98-47.29,67.87-73.14,70.07-74.22c2.22-1.08,4.8-1.11,7.04-0.05c2.23,1.05,3.86,3.06,4.43,5.46
						c8.1,34.04,21.45,116.21-29.45,144.07C1363.39,1139.16,1356.45,1140.95,1349.75,1140.95z M1385.98,1005.88
						c-14.62,9.13-42.64,29.84-52.7,59.59c-8.46,25.04-6.89,45.55,4.2,54.85c6.56,5.5,15.8,5.85,24.72,0.97
						C1399.05,1101.12,1392.87,1040.17,1385.98,1005.88z"/>
				</g>
			</g>
			<g>
				<g>
					<path class="st49" d="M1209.94,1279.91c0,0-50.86,24.9-65.95,69.53c-19.05,56.38,12.76,80.73,40.51,65.54
						C1226.4,1392.04,1220.68,1325.04,1209.94,1279.91z"/>
				</g>
				<g class="st8">
					<path class="st4" d="M1186.54,1317.63c0,0-14.7,5.79-19.9,17.87c-6.56,15.26,1.75,22.74,9.81,19.14
						C1188.63,1349.19,1188.53,1330.43,1186.54,1317.63z"/>
				</g>
				<g>
					<path class="st50" d="M1184.5,1414.97c-24.07,13.15-51.15-3.37-45.55-44.66c9.09,9.38,22.94,10.92,35.89,3.82
						c30-16.4,35.56-55.41,32.35-92.8c1.75-0.93,2.76-1.42,2.76-1.42C1220.67,1325.05,1226.4,1392.03,1184.5,1414.97z"/>
				</g>
				<g>
					<path class="st5" d="M1168.15,1427.51c-8.31,0-16.24-2.75-22.71-8.18c-16.42-13.77-19.83-40.87-9.15-72.49
						c15.98-47.29,67.87-73.14,70.07-74.22c2.22-1.09,4.8-1.1,7.04-0.05c2.23,1.05,3.86,3.06,4.43,5.46
						c8.1,34.04,21.46,116.21-29.45,144.07C1181.79,1425.72,1174.85,1427.51,1168.15,1427.51z M1204.37,1292.44
						c-14.62,9.13-42.64,29.84-52.7,59.59c-8.46,25.04-6.89,45.55,4.2,54.85c6.55,5.49,15.78,5.86,24.72,0.97
						C1217.45,1387.68,1211.26,1326.73,1204.37,1292.44z"/>
				</g>
			</g>
			<g>
				<g>
					<path class="st49" d="M1067.65,1093.61c0,0-50.86,24.9-65.95,69.53c-19.05,56.38,12.76,80.73,40.51,65.54
						C1084.12,1205.74,1078.4,1138.74,1067.65,1093.61z"/>
				</g>
				<g class="st8">
					<path class="st4" d="M1044.26,1131.33c0,0-14.7,5.79-19.9,17.87c-6.56,15.26,1.75,22.74,9.81,19.14
						C1046.34,1162.89,1046.24,1144.13,1044.26,1131.33z"/>
				</g>
				<g>
					<path class="st50" d="M1042.22,1228.67c-24.07,13.15-51.15-3.37-45.55-44.66c9.09,9.38,22.94,10.92,35.89,3.82
						c30-16.4,35.56-55.41,32.35-92.8c1.75-0.93,2.76-1.42,2.76-1.42C1078.39,1138.75,1084.11,1205.74,1042.22,1228.67z"/>
				</g>
				<g>
					<path class="st5" d="M1025.87,1241.21c-8.31,0-16.24-2.75-22.71-8.18c-16.42-13.77-19.83-40.87-9.15-72.49
						c15.99-47.29,67.87-73.14,70.07-74.22c2.21-1.09,4.8-1.11,7.04-0.05c2.23,1.05,3.86,3.06,4.43,5.46
						c8.1,34.04,21.45,116.21-29.44,144.07C1039.5,1239.42,1032.57,1241.21,1025.87,1241.21z M1062.09,1106.14
						c-14.62,9.13-42.64,29.84-52.7,59.59c-8.46,25.04-6.89,45.54,4.2,54.85c6.54,5.49,15.78,5.86,24.72,0.97
						C1075.16,1201.38,1068.98,1140.43,1062.09,1106.14z"/>
				</g>
			</g>
			<g>
				<g>
					<path class="st49" d="M1578.32,1399.12c0,0-50.86,24.9-65.95,69.53c-19.05,56.38,12.76,80.73,40.51,65.54
						C1594.78,1511.25,1589.06,1444.26,1578.32,1399.12z"/>
				</g>
				<g class="st8">
					<path class="st4" d="M1554.92,1436.84c0,0-14.7,5.79-19.9,17.87c-6.56,15.26,1.75,22.74,9.81,19.14
						C1557.01,1468.4,1556.91,1449.64,1554.92,1436.84z"/>
				</g>
				<g>
					<path class="st50" d="M1552.88,1534.19c-24.07,13.15-51.15-3.37-45.55-44.66c9.09,9.38,22.94,10.92,35.89,3.82
						c30-16.4,35.56-55.41,32.36-92.8c1.75-0.93,2.76-1.42,2.76-1.42C1589.05,1444.27,1594.78,1511.25,1552.88,1534.19z"/>
				</g>
				<g>
					<path class="st5" d="M1536.53,1546.72c-8.3,0-16.24-2.75-22.71-8.18c-16.42-13.77-19.83-40.87-9.15-72.49
						c15.3-45.29,67.91-76.03,74.96-74.94c3.23,0.53,5.82,2.95,6.58,6.13c8.1,34.04,21.45,116.21-29.44,144.07
						C1550.16,1544.93,1543.23,1546.72,1536.53,1546.72z M1572.76,1411.65c-14.61,9.11-42.63,29.81-52.7,59.6
						c-8.46,25.04-6.89,45.55,4.2,54.85c6.56,5.5,15.8,5.86,24.72,0.97C1585.83,1506.89,1579.65,1445.94,1572.76,1411.65z"/>
				</g>
			</g>
			<g>
				<g>
					<path class="st49" d="M1548.16,1776.82c0,0-50.86,24.9-65.95,69.53c-19.05,56.38,12.76,80.73,40.51,65.54
						C1564.63,1888.94,1558.91,1821.95,1548.16,1776.82z"/>
				</g>
				<g class="st8">
					<path class="st4" d="M1524.77,1814.54c0,0-14.7,5.79-19.9,17.87c-6.56,15.26,1.75,22.74,9.81,19.14
						C1526.86,1846.1,1526.76,1827.33,1524.77,1814.54z"/>
				</g>
				<g>
					<path class="st50" d="M1522.73,1911.88c-24.07,13.15-51.15-3.37-45.55-44.66c9.09,9.38,22.94,10.92,35.89,3.82
						c30-16.4,35.56-55.41,32.36-92.8c1.75-0.93,2.76-1.42,2.76-1.42C1558.9,1821.96,1564.63,1888.94,1522.73,1911.88z"/>
				</g>
				<g>
					<path class="st5" d="M1506.38,1924.42c-8.3,0-16.24-2.75-22.71-8.18c-16.42-13.77-19.83-40.87-9.15-72.49
						c15.98-47.29,67.87-73.14,70.07-74.22c2.22-1.09,4.8-1.11,7.04-0.05c2.23,1.05,3.86,3.06,4.43,5.46
						c8.1,34.04,21.45,116.21-29.44,144.07C1520.02,1922.62,1513.08,1924.42,1506.38,1924.42z M1542.61,1789.35
						c-14.62,9.13-42.64,29.84-52.7,59.59c-8.46,25.04-6.89,45.55,4.2,54.85c6.54,5.49,15.78,5.86,24.72,0.97
						C1555.68,1884.59,1549.5,1823.64,1542.61,1789.35z"/>
				</g>
			</g>
			<g>
				<g>
					<path class="st49" d="M213.93,1745.52c0,0-50.86,24.9-65.95,69.53c-19.05,56.38,12.76,80.73,40.51,65.54
						C230.4,1857.64,224.68,1790.65,213.93,1745.52z"/>
				</g>
				<g class="st8">
					<path class="st4" d="M190.54,1783.24c0,0-14.7,5.79-19.9,17.87c-6.56,15.26,1.75,22.74,9.81,19.14
						C192.62,1814.8,192.52,1796.03,190.54,1783.24z"/>
				</g>
				<g>
					<path class="st50" d="M188.49,1880.58c-24.07,13.15-51.15-3.37-45.55-44.66c9.09,9.38,22.94,10.92,35.89,3.82
						c30-16.4,35.56-55.41,32.36-92.8c1.75-0.93,2.76-1.42,2.76-1.42C224.67,1790.66,230.39,1857.64,188.49,1880.58z"/>
				</g>
				<g>
					<path class="st5" d="M172.14,1893.11c-8.3,0-16.23-2.75-22.71-8.18c-16.42-13.76-19.83-40.86-9.15-72.49
						c15.98-47.29,67.87-73.14,70.07-74.22c2.22-1.08,4.8-1.1,7.04-0.05c2.23,1.05,3.86,3.06,4.43,5.46
						c8.1,34.04,21.46,116.21-29.45,144.07C185.78,1891.32,178.84,1893.11,172.14,1893.11z M208.37,1758.05
						c-14.62,9.13-42.64,29.84-52.7,59.59c-8.46,25.04-6.89,45.55,4.2,54.85c6.55,5.49,15.79,5.87,24.72,0.97
						C221.45,1853.28,215.26,1792.34,208.37,1758.05z"/>
				</g>
			</g>
			<g>
				<g>
					<path class="st49" d="M1478.83,1163.58c0,0-50.86,24.9-65.95,69.53c-19.05,56.38,12.76,80.73,40.51,65.54
						C1495.3,1275.7,1489.58,1208.71,1478.83,1163.58z"/>
				</g>
				<g class="st8">
					<path class="st4" d="M1455.44,1201.3c0,0-14.7,5.79-19.9,17.87c-6.56,15.26,1.75,22.74,9.81,19.14
						C1457.53,1232.86,1457.43,1214.09,1455.44,1201.3z"/>
				</g>
				<g>
					<path class="st50" d="M1453.4,1298.64c-24.07,13.15-51.15-3.37-45.55-44.66c9.09,9.38,22.94,10.92,35.89,3.82
						c30-16.4,35.56-55.41,32.35-92.8c1.75-0.93,2.76-1.42,2.76-1.42C1489.57,1208.72,1495.3,1275.7,1453.4,1298.64z"/>
				</g>
				<g>
					<path class="st5" d="M1437.05,1311.17c-8.3,0-16.24-2.75-22.71-8.18c-16.42-13.77-19.83-40.87-9.15-72.49
						c15.99-47.29,67.87-73.14,70.07-74.22c2.21-1.09,4.8-1.11,7.04-0.05c2.23,1.05,3.86,3.06,4.43,5.46
						c8.1,34.04,21.45,116.21-29.44,144.07C1450.69,1309.38,1443.75,1311.17,1437.05,1311.17z M1473.27,1176.11
						c-14.62,9.13-42.64,29.84-52.7,59.59c-8.46,25.04-6.89,45.54,4.2,54.85c6.56,5.5,15.79,5.86,24.72,0.97
						C1486.35,1271.35,1480.16,1210.4,1473.27,1176.11z"/>
				</g>
			</g>
			<g>
				<g>
					<path class="st49" d="M789.73,1023.87c0,0-50.86,24.9-65.95,69.53c-19.05,56.38,12.76,80.73,40.51,65.54
						C806.2,1136,800.48,1069,789.73,1023.87z"/>
				</g>
				<g class="st8">
					<path class="st4" d="M766.34,1061.59c0,0-14.7,5.79-19.9,17.87c-6.56,15.26,1.75,22.74,9.81,19.14
						C768.42,1093.15,768.32,1074.39,766.34,1061.59z"/>
				</g>
				<g>
					<path class="st50" d="M764.3,1158.93c-24.07,13.15-51.15-3.37-45.55-44.66c9.09,9.38,22.94,10.92,35.89,3.82
						c30-16.4,35.56-55.41,32.36-92.8c1.75-0.93,2.76-1.42,2.76-1.42C800.47,1069.01,806.19,1136,764.3,1158.93z"/>
				</g>
				<g>
					<path class="st5" d="M747.94,1171.47c-8.3,0-16.23-2.75-22.71-8.18c-16.42-13.77-19.83-40.87-9.15-72.5
						c15.98-47.29,67.87-73.14,70.07-74.22c2.22-1.09,4.8-1.1,7.04-0.05c2.23,1.05,3.86,3.06,4.43,5.46
						c8.1,34.03,21.46,116.2-29.45,144.07C761.58,1169.68,754.64,1171.47,747.94,1171.47z M784.17,1036.4
						c-14.62,9.13-42.64,29.84-52.7,59.59c-8.46,25.04-6.89,45.55,4.2,54.85c6.55,5.5,15.79,5.86,24.71,0.97
						C797.25,1131.64,791.06,1070.69,784.17,1036.4z"/>
				</g>
			</g>
			<g>
				<g>
					<path class="st49" d="M603.5,1246.56c0,0-50.86,24.9-65.95,69.53c-19.05,56.38,12.76,80.73,40.51,65.54
						C619.97,1358.68,614.24,1291.69,603.5,1246.56z"/>
				</g>
				<g class="st8">
					<path class="st4" d="M580.11,1284.28c0,0-14.7,5.79-19.9,17.87c-6.56,15.26,1.75,22.74,9.81,19.14
						C582.19,1315.84,582.09,1297.07,580.11,1284.28z"/>
				</g>
				<g>
					<path class="st50" d="M578.06,1381.62c-24.07,13.15-51.15-3.37-45.55-44.66c9.09,9.38,22.94,10.92,35.89,3.82
						c30-16.4,35.56-55.41,32.36-92.8c1.75-0.93,2.76-1.42,2.76-1.42C614.23,1291.7,619.96,1358.68,578.06,1381.62z"/>
				</g>
				<g>
					<path class="st5" d="M561.71,1394.16c-8.31,0-16.24-2.75-22.71-8.18c-16.42-13.77-19.83-40.87-9.15-72.49
						c15.98-47.29,67.87-73.14,70.07-74.22c2.22-1.08,4.8-1.1,7.04-0.05c2.23,1.05,3.86,3.06,4.43,5.46
						c8.1,34.04,21.45,116.21-29.44,144.07C575.35,1392.37,568.41,1394.16,561.71,1394.16z M597.94,1259.09
						c-14.62,9.13-42.64,29.84-52.7,59.59c-8.46,25.04-6.89,45.54,4.2,54.85c6.54,5.49,15.78,5.86,24.72,0.97
						C611.01,1354.33,604.83,1293.38,597.94,1259.09z"/>
				</g>
			</g>
			<g>
				<g>
					<path class="st49" d="M844.12,1359.48c0,0-50.86,24.9-65.95,69.53c-19.05,56.38,12.76,80.73,40.51,65.54
						C860.59,1471.61,854.87,1404.62,844.12,1359.48z"/>
				</g>
				<g class="st8">
					<path class="st4" d="M820.73,1397.2c0,0-14.7,5.79-19.9,17.87c-6.56,15.26,1.75,22.74,9.81,19.14
						C822.82,1428.76,822.72,1410,820.73,1397.2z"/>
				</g>
				<g>
					<path class="st50" d="M818.69,1494.54c-24.07,13.15-51.15-3.37-45.55-44.66c9.09,9.38,22.94,10.92,35.89,3.82
						c30-16.4,35.56-55.41,32.36-92.8c1.75-0.93,2.76-1.42,2.76-1.42C854.86,1404.62,860.58,1471.61,818.69,1494.54z"/>
				</g>
				<g>
					<path class="st5" d="M802.34,1507.08c-8.31,0-16.24-2.75-22.71-8.18c-16.42-13.77-19.83-40.87-9.14-72.49
						c15.98-47.29,67.87-73.14,70.07-74.22c2.22-1.09,4.8-1.1,7.04-0.05c2.23,1.05,3.86,3.06,4.43,5.46
						c8.1,34.04,21.46,116.21-29.45,144.07C815.97,1505.29,809.04,1507.08,802.34,1507.08z M838.56,1372.01
						c-14.62,9.13-42.64,29.84-52.7,59.59c-8.46,25.04-6.89,45.54,4.2,54.85c6.55,5.5,15.79,5.86,24.72,0.97
						C851.64,1467.25,845.45,1406.3,838.56,1372.01z"/>
				</g>
			</g>
			<g>
				<g>
					<path class="st49" d="M408.26,1063.09c0,0-50.86,24.9-65.95,69.53c-19.05,56.38,12.76,80.73,40.51,65.54
						C424.73,1175.22,419.01,1108.22,408.26,1063.09z"/>
				</g>
				<g class="st8">
					<path class="st4" d="M384.87,1100.81c0,0-14.7,5.79-19.9,17.87c-6.56,15.26,1.75,22.74,9.81,19.14
						C386.95,1132.37,386.85,1113.6,384.87,1100.81z"/>
				</g>
				<g>
					<path class="st50" d="M382.83,1198.15c-24.07,13.15-51.15-3.37-45.55-44.66c9.09,9.38,22.94,10.92,35.89,3.82
						c30-16.4,35.56-55.41,32.36-92.8c1.75-0.93,2.76-1.42,2.76-1.42C419,1108.23,424.72,1175.21,382.83,1198.15z"/>
				</g>
				<g>
					<path class="st5" d="M366.48,1210.69c-8.3,0-16.24-2.75-22.71-8.18c-16.42-13.77-19.83-40.87-9.15-72.49
						c15.98-47.29,67.87-73.14,70.07-74.22c2.22-1.09,4.8-1.1,7.04-0.05c2.23,1.05,3.86,3.06,4.43,5.46
						c8.1,34.04,21.46,116.21-29.44,144.07C380.11,1208.9,373.18,1210.69,366.48,1210.69z M402.7,1075.62
						c-14.62,9.13-42.64,29.84-52.7,59.59c-8.46,25.04-6.89,45.55,4.2,54.85c6.56,5.5,15.8,5.86,24.72,0.97
						C415.78,1170.86,409.59,1109.91,402.7,1075.62z"/>
				</g>
			</g>
			<g>
				<g>
					<path class="st49" d="M176.58,1412.2c0,0-50.86,24.9-65.95,69.53c-19.05,56.38,12.76,80.73,40.51,65.54
						C193.05,1524.33,187.32,1457.33,176.58,1412.2z"/>
				</g>
				<g class="st8">
					<path class="st4" d="M153.19,1449.92c0,0-14.7,5.79-19.9,17.87c-6.56,15.26,1.75,22.74,9.81,19.14
						C155.27,1481.48,155.17,1462.72,153.19,1449.92z"/>
				</g>
				<g>
					<path class="st50" d="M151.14,1547.26c-24.07,13.15-51.15-3.37-45.55-44.66c9.09,9.38,22.94,10.92,35.89,3.82
						c30-16.4,35.56-55.41,32.36-92.8c1.75-0.93,2.76-1.42,2.76-1.42C187.31,1457.34,193.04,1524.33,151.14,1547.26z"/>
				</g>
				<g>
					<path class="st5" d="M134.79,1559.8c-8.3,0-16.24-2.75-22.71-8.18c-16.42-13.77-19.83-40.87-9.15-72.49
						c15.98-47.29,67.87-73.14,70.07-74.22c2.22-1.09,4.8-1.11,7.04-0.05c2.23,1.05,3.86,3.06,4.43,5.46
						c8.1,34.04,21.45,116.21-29.44,144.07C148.43,1558.01,141.49,1559.8,134.79,1559.8z M171.02,1424.73
						c-14.62,9.13-42.64,29.84-52.7,59.59c-8.46,25.04-6.89,45.55,4.2,54.85c6.56,5.5,15.8,5.86,24.72,0.97
						C184.09,1519.97,177.91,1459.02,171.02,1424.73z"/>
				</g>
			</g>
			<g>
				<path class="st2" d="M892.6,2108.27c0,0-22.65,37.42,71.46,55.42c56.26,10.76,115.21,32.03,115.21,32.03l-56.94-96.81
					L892.6,2108.27z"/>
			</g>
			<g>
				<path class="st5" d="M897.81,2111.43c-3.44,27.91,56.05,37.15,76.89,42.26c36.83,8.53,72.39,20.34,106.64,36.31
					c6.53,3.14,2.98,13.25-4.13,11.46c-19.13-4.58-62.04-14.97-80.57-18.92c-27.69-6.8-56.54-8.53-82.69-21.76
					c-19.38-8.22-42.35-33.63-26.56-55.65c2.11-3.08,7.16-2.38,8.4,1.1C895.79,2106.22,897.81,2111.43,897.81,2111.43
					L897.81,2111.43z"/>
			</g>
			<g>
				<path class="st2" d="M522.83,2102.11c0,0,22.7,39.04-71.96,58.04c-56.59,11.35-115.9,33.69-115.9,33.69l57.44-101.24
					L522.83,2102.11z"/>
			</g>
			<g>
				<path class="st5" d="M528.92,2099.05c15.39,22.22-6.22,48.08-25.8,56.96c-17.54,9.63-37.26,13.4-56.6,17.41
					c-31.79,6.13-76.84,18.16-108.67,26.13c-6.99,1.74-10.73-8.2-4.2-11.42c36.71-17.59,75.09-30.76,114.88-39.56
					c20.55-5.34,66.98-14.21,69.97-38.67c0.17-1.38-0.1-3.58-0.12-4.74c0,0,0.99-4.32,0.99-4.32
					C520.22,2096.42,526.55,2095.29,528.92,2099.05L528.92,2099.05z"/>
			</g>
			<g>
				<path class="st5" d="M416.51,802.3c50.64-5.55,101.63-24.55,140.15-58.61c7.64-7.11,18.62,3.75,11.52,11.45
					c-38.81,41.83-92.16,67.78-147.69,79.4C397.96,837.83,393.79,804.63,416.51,802.3L416.51,802.3z"/>
			</g>
			<g>
				<path class="st5" d="M977.72,902.04c-30.01-21.69-57.22-45.73-81.25-73.78c-7.84-9.42-15.16-19.35-21.67-29.87
					c-2.36-3.82-1.18-8.82,2.64-11.18c3.62-2.24,8.32-1.28,10.8,2.06c28.59,35.57,67.44,62.8,106.72,85.23
					C1014.42,886.16,996.79,914.47,977.72,902.04L977.72,902.04z"/>
			</g>
		</g>
	</g>
</g>
</svg>
